<?xml version="1.0" encoding="UTF-8" standalone="no"?>
<!-- Created with Inkscape (http://www.inkscape.org/) -->

<svg
   xmlns:dc="http://purl.org/dc/elements/1.1/"
   xmlns:cc="http://creativecommons.org/ns#"
   xmlns:rdf="http://www.w3.org/1999/02/22-rdf-syntax-ns#"
   xmlns:svg="http://www.w3.org/2000/svg"
   xmlns="http://www.w3.org/2000/svg"
   xmlns:sodipodi="http://sodipodi.sourceforge.net/DTD/sodipodi-0.dtd"
   xmlns:inkscape="http://www.inkscape.org/namespaces/inkscape"
   width="210mm"
   height="297mm"
   viewBox="0 0 210 297"
   version="1.1"
   id="svg8"
   inkscape:version="0.92.4 (5da689c313, 2019-01-14)"
   sodipodi:docname="pcb.svg">
  <defs
     id="defs2" />
  <sodipodi:namedview
     id="base"
     pagecolor="#ffffff"
     bordercolor="#666666"
     borderopacity="1.0"
     inkscape:pageopacity="0.0"
     inkscape:pageshadow="2"
     inkscape:zoom="1.979899"
     inkscape:cx="400"
     inkscape:cy="88.99196"
     inkscape:document-units="mm"
     inkscape:current-layer="layer1"
     showgrid="false"
     inkscape:window-width="1920"
     inkscape:window-height="1017"
     inkscape:window-x="1912"
     inkscape:window-y="-8"
     inkscape:window-maximized="1" />
  <metadata
     id="metadata5">
    <rdf:RDF>
      <cc:Work
         rdf:about="">
        <dc:format>image/svg+xml</dc:format>
        <dc:type
           rdf:resource="http://purl.org/dc/dcmitype/StillImage" />
        <dc:title></dc:title>
      </cc:Work>
    </rdf:RDF>
  </metadata>
  <g
     inkscape:label="Layer 1"
     inkscape:groupmode="layer"
     id="layer1">
    <path
       style="fill:#000000;stroke-width:0.08466667"
       d="M 0.15938693,270.14025 V 243.25858 H 51.128725 102.09806 v 26.88167 26.88166 H 51.128725 0.15938693 Z M 102.01339,270.09795 v -26.7547 H 53.690885 5.3683729 l -1.29216,1.29014 -1.292159,1.29014 v 5.08208 5.08209 l -1.270001,1.26788 -1.26999997,1.26788 v 17.18945 17.18945 l 1.26999997,1.26789 1.270001,1.26788 v 0.65722 0.65723 H 52.398725 102.01339 Z M 2.9533869,296.06839 v -0.61489 l -1.27,-1.26788 -1.26999997,-1.26788 v -17.10479 -17.10478 l 1.26999997,-1.26788 1.27,-1.26789 v -5.08472 -5.08471 l 1.255186,-1.24518 1.255187,-1.24517 H 53.653905 101.84406 v 26.58533 26.58534 H 52.398725 2.9533869 Z m 3.259667,0.0332 c 0.379442,-0.17331 0.839043,-0.6073 1.030381,-0.97296 0.204223,-0.39028 0.238041,-1.0729 0.07715,-1.5573 -0.447575,-1.34752 -2.17684,-1.82276 -3.25973,-0.89585 -0.858992,0.73526 -0.9537,2.02031 -0.213592,2.89811 0.52453,0.62212 1.622988,0.86727 2.365791,0.528 z m -0.973667,-1.87981 c 0,-0.21697 0.280232,-0.19235 0.322736,0.0284 0.01957,0.1016 -0.02603,0.1472 -0.147195,0.1472 -0.121166,0 -0.175541,-0.0544 -0.175541,-0.17555 z m 6.7483381,1.90164 c 0.01726,-0.0518 -0.09388,-0.1436 -0.24698,-0.20393 -0.312101,-0.12299 -4.4060301,-4.13019 -4.6053831,-4.50783 -0.159409,-0.30197 -0.183108,-4.85657 -0.02687,-5.16388 0.139346,-0.27409 1.936312,-2.08067 2.237228,-2.2492 0.219536,-0.12295 0.647478,-0.148 3.1539951,-0.18459 1.847313,-0.027 2.900479,-0.0731 2.901329,-0.127 7.6e-4,-0.0466 -0.14694,-0.0961 -0.328155,-0.11018 -0.524754,-0.0406 -0.703921,-0.29586 -0.672664,-0.95822 0.0245,-0.51917 0.03459,-0.54131 0.258328,-0.56705 0.231357,-0.0266 0.232833,-0.0235 0.232833,0.48683 v 0.51362 h 1.185338 1.18533 v -0.51362 c 0,-0.51037 0.001,-0.51346 0.23283,-0.48683 0.22374,0.0257 0.23383,0.0479 0.25833,0.56705 0.0318,0.67343 -0.15901,0.9414 -0.67026,0.9414 -0.43218,0 -0.47396,0.1182 -0.11928,0.33741 0.60851,0.37607 0.89859,1.08245 0.7352,1.79029 -0.13179,0.57092 -0.38452,0.90669 -0.83119,1.10427 -0.20219,0.0894 -0.36763,0.19796 -0.36763,0.24115 0,0.0432 0.1143,0.13764 0.254,0.20988 0.29372,0.15189 0.31081,0.21868 0.1039,0.40593 -0.10269,0.0929 -0.1896,0.11086 -0.27517,0.0568 -0.16443,-0.10398 -0.81451,-0.10381 -1.00897,2.6e-4 -0.11651,0.0623 -0.19108,0.0395 -0.31194,-0.0954 -0.15384,-0.17181 -0.153944,-0.18035 -0.003,-0.27244 0.0855,-0.0523 0.21888,-0.14198 0.29634,-0.1993 0.30908,-0.22874 -0.10706,-0.27418 -2.522967,-0.27548 l -2.409799,-10e-4 -0.363038,0.3563 -0.3630381,0.35629 v 1.23209 1.23209 l 1.5037961,1.50205 1.503796,1.50206 34.24671,-0.0213 34.2467,-0.0213 0.0423,-1.19379 c 0.0302,-0.85189 0.0771,-1.23985 0.1639,-1.35466 0.22527,-0.29814 1.99279,-2.07602 2.2491,-2.2623 l 0.254,-0.18459 6.51933,-0.0423 6.51934,-0.0423 -0.006,-0.40717 -0.006,-0.40717 -2.11039,-2.11167 c -1.16073,-1.16141 -2.15833,-2.11166 -2.21688,-2.11166 -0.0754,0 -0.10647,0.17309 -0.10647,0.59267 v 0.59266 h -0.254 c -0.25144,0 -0.254,-0.005 -0.254,-0.46566 v -0.46608 h -1.18533 -1.18534 v 0.33867 c 0,0.31985 -0.0141,0.33866 -0.254,0.33866 -0.24835,0 -0.254,-0.009 -0.254,-0.42333 0,-0.53983 0.19603,-0.762 0.67234,-0.762 0.4463,0 0.49236,-0.11595 0.13404,-0.33741 -1.12398,-0.69465 -1.01913,-2.34654 0.18928,-2.98182 0.15089,-0.0793 0.27434,-0.17831 0.27434,-0.21997 0,-0.0417 -0.15617,-0.14617 -0.34705,-0.23225 -1.20787,-0.54467 -1.18751,-2.40247 0.0328,-2.99322 1.27327,-0.61637 2.67551,0.49697 2.35806,1.87224 -0.12756,0.55264 -0.40706,0.9212 -0.8501,1.12098 -0.19088,0.0861 -0.34705,0.18747 -0.34705,0.22533 0,0.15047 0.357,0.24412 0.93061,0.24412 1.26167,0 1.05291,-0.15014 4.34287,3.1233 1.61984,1.6117 3.03956,3.06649 3.15496,3.23287 0.207846,0.29966 0.209876,0.32076 0.217396,2.25217 0.008,2.05633 -0.0203,2.23633 -0.406426,2.5858 -0.45559,0.41229 -0.32288,0.40519 -7.57786,0.40519 h -6.79456 l -0.44716,0.44161 -0.44716,0.44161 v 1.50844 c 0,1.09251 -0.0321,1.58357 -0.11658,1.78089 -0.13337,0.31172 -0.49098,0.66323 -0.84768,0.83322 -0.13453,0.0641 -0.24883,0.15467 -0.254,0.20123 -0.0125,0.11235 2.82718,0.16061 2.93786,0.0499 0.052,-0.052 -0.0111,-0.19794 -0.17463,-0.40445 -0.27087,-0.342 -0.52897,-1.07233 -0.52897,-1.49679 0,-0.13984 0.0644,-0.48534 0.14314,-0.7678 0.18417,-0.6607 0.86089,-1.38139 1.50177,-1.59933 0.5326,-0.18112 1.25757,-0.18112 1.79017,0 0.64088,0.21794 1.3176,0.93863 1.50177,1.59933 0.0787,0.28246 0.14315,0.62796 0.14315,0.7678 0,0.42446 -0.2581,1.15479 -0.52897,1.49679 -0.16019,0.20226 -0.22609,0.353 -0.17615,0.40294 0.0488,0.0488 2.2977,0.0713 5.78995,0.058 l 5.710166,-0.0218 v -26.07733 -26.07734 l -6.345226,-0.0217 c -3.78936,-0.013 -6.37665,0.01 -6.42325,0.0563 -0.0476,0.0476 0.0221,0.20466 0.17883,0.40271 0.27,0.34127 0.52465,1.06867 0.52465,1.49865 0,0.13984 -0.0644,0.48535 -0.14315,0.7678 -0.18417,0.6607 -0.86089,1.38139 -1.50177,1.59933 -0.5326,0.18112 -1.25757,0.18112 -1.79017,0 -0.64088,-0.21794 -1.3176,-0.93863 -1.50176,-1.59933 -0.0787,-0.28245 -0.14315,-0.62796 -0.14315,-0.7678 0,-0.42702 0.25393,-1.15647 0.51945,-1.49219 0.13841,-0.17501 0.22831,-0.35598 0.19977,-0.40216 -0.0718,-0.11614 -71.216676,-0.11614 -71.288454,0 -0.02854,0.0462 0.06136,0.22715 0.199781,0.40216 0.265518,0.33572 0.519448,1.06517 0.519448,1.49219 0,0.13984 -0.06442,0.48535 -0.14315,0.7678 -0.184164,0.6607 -0.860889,1.38139 -1.501766,1.59933 -0.532601,0.18112 -1.257568,0.18112 -1.790169,0 -0.640877,-0.21794 -1.3176021,-0.93863 -1.5017661,-1.59933 -0.07873,-0.28245 -0.143149,-0.62796 -0.143149,-0.7678 0,-0.42702 0.253929,-1.15647 0.519447,-1.49219 0.138419,-0.17501 0.22832,-0.35598 0.199781,-0.40216 -0.03204,-0.0518 -0.852209,-0.084 -2.143568,-0.084 h -2.091659 l -1.120657,1.12297 -1.120657,1.12297 v 4.97723 c 0,4.15483 -0.02002,5.01502 -0.12117,5.20587 -0.06664,0.12574 -0.638144,0.74245 -1.27,1.37045 l -1.14882997,1.14182 v 16.89362 16.89362 l 0.91438997,0.91156 c 0.502915,0.50135 0.941065,0.88488 0.973667,0.85228 0.0326,-0.0326 0.05928,-0.15521 0.05928,-0.27245 0,-0.11724 0.06442,-0.44426 0.143149,-0.72672 0.184164,-0.6607 0.860889,-1.38139 1.501767,-1.59933 0.988225,-0.33606 1.950766,-0.11544 2.678101,0.61383 0.383613,0.38464 0.497166,0.56695 0.613834,0.9855 0.07873,0.28246 0.143149,0.62796 0.143149,0.7678 0,0.42137 -0.257351,1.15384 -0.523441,1.48981 -0.137725,0.17389 -0.226075,0.35554 -0.196333,0.40366 0.0779,0.12605 4.7163751,0.0756 4.7587791,-0.0517 z m 13.73006,-3.8059 c -0.73556,-0.22649 -1.26019,-1.07499 -1.13783,-1.84024 0.0603,-0.37687 0.31218,-0.90798 0.50758,-1.07015 0.11965,-0.0993 0.13319,-1.04976 0.13319,-9.35133 v -9.24079 l -0.99733,-0.99472 -0.99732,-0.99473 -2.70149,0.0224 -2.70149,0.0224 -0.0692,0.26699 c -0.0711,0.2746 -0.38061,0.45267 -0.78674,0.45267 -0.28271,0 -0.32618,0.10479 -0.11112,0.26789 0.17902,0.13577 0.18354,0.15821 0.0575,0.2852 -0.1183,0.11918 -0.18422,0.12364 -0.48684,0.033 -0.27829,-0.0834 -0.42173,-0.0834 -0.70002,0 -0.30262,0.0907 -0.36854,0.0862 -0.48684,-0.033 -0.126064,-0.127 -0.120224,-0.15041 0.0743,-0.29787 0.23337,-0.17691 0.20388,-0.20124 -0.356555,-0.29428 -0.555245,-0.0922 -0.574542,-0.14895 -0.571529,-1.68149 0.0021,-1.0751 0.02965,-1.40543 0.128,-1.5355 0.107845,-0.14262 0.124863,-0.96559 0.122122,-5.90547 -0.0027,-4.86366 0.01561,-5.77531 0.119972,-5.97262 0.197884,-0.37414 1.67243,-1.78026 2.01633,-1.92276 0.26135,-0.10829 0.77986,-0.13043 3.05505,-0.13043 1.50715,0 2.76405,-0.0238 2.7931,-0.0528 0.029,-0.0291 -0.0217,-0.19898 -0.11289,-0.37762 -0.18458,-0.36181 -0.21486,-0.83935 -0.071,-1.12029 0.0521,-0.10172 0.22771,-0.32419 0.39031,-0.49438 l 0.29564,-0.30944 -0.20497,-0.1343 c -0.2978,-0.19514 -0.57566,-0.74039 -0.57566,-1.12966 0,-0.40094 0.25878,-0.82205 0.67935,-1.10547 0.16187,-0.10909 0.29432,-0.24334 0.29432,-0.29835 0,-0.0744 -0.70458,-0.10573 -2.75025,-0.12237 l -2.75025,-0.0224 -6.076254,6.07581 -6.0762521,6.07581 v 5.92791 5.92791 l 1.29216,1.29014 1.29216,1.29015 h 3.2041181 c 3.196897,0 3.204647,-4.3e-4 3.438504,-0.1905 0.128911,-0.10478 0.353484,-0.25541 0.499054,-0.33473 0.33153,-0.18066 0.33424,-0.28062 0.0107,-0.39342 -0.273375,-0.0953 -0.327299,-0.26979 -0.13317,-0.4309 0.0932,-0.0773 0.19973,-0.0766 0.46567,0.003 0.27139,0.0813 0.41829,0.0813 0.68967,0 0.26594,-0.0797 0.37248,-0.0804 0.46567,-0.003 0.18957,0.15733 0.14292,0.30385 -0.13317,0.41821 -0.32501,0.13462 -0.32038,0.22698 0.0203,0.40611 0.49108,0.25817 0.80532,0.655 0.91824,1.15955 0.36811,1.64492 -1.46893,2.72029 -2.771142,1.62217 l -0.266222,-0.22449 -3.543778,-0.003 c -2.6522951,-0.002 -3.5863761,-0.0292 -3.7131111,-0.10718 -0.09313,-0.0573 -0.969433,-0.9144 -1.947333,-1.90467 l -1.778,-1.8005 v -6.72879 -6.72879 l 6.6474621,-6.64587 6.647464,-6.64587 h 29.58528 29.58529 l 1.57092,1.56437 1.57092,1.56437 0.0423,2.85946 0.0423,2.85947 3.84595,0.022 3.84594,0.022 0.20371,-0.19138 c 0.1878,-0.17642 0.28184,-0.19137 1.204,-0.19137 1.37031,0 1.35673,-0.0136 1.35673,1.36164 0,1.0075 -0.006,1.04413 -0.21166,1.20557 -0.25121,0.19759 -0.26804,0.3612 -0.0568,0.55233 0.13847,0.12532 0.50173,0.14013 3.4371,0.14013 3.26825,0 3.2834,-8.5e-4 3.54933,-0.1905 0.38424,-0.27408 1.25372,-0.27182 1.64078,0.004 0.34426,0.24555 0.50929,0.73134 0.37718,1.11029 -0.0868,0.2489 -0.0774,0.26853 0.17947,0.37836 0.14904,0.0637 0.60435,0.45858 1.01182,0.87748 l 0.740825,0.76164 v 5.95409 5.95409 l -0.830155,0.83015 -0.83015,0.83014 h -5.96512 c -5.764,0 -5.96854,0.005 -6.0654,0.1605 -0.0551,0.0883 -0.27383,0.2268 -0.48603,0.30784 -0.36593,0.13975 -0.40553,0.1398 -0.7691,9.5e-4 -0.97092,-0.3708 -1.08749,-1.56594 -0.20695,-2.12181 0.18494,-0.11674 0.33625,-0.24526 0.33625,-0.2856 0,-0.0403 -0.11676,-0.12169 -0.25947,-0.1808 -0.36402,-0.15079 -0.67193,-0.63431 -0.67154,-1.05456 4.2e-4,-0.48162 0.26365,-0.86699 0.73432,-1.0752 0.33534,-0.14833 0.43767,-0.15932 0.7136,-0.0766 0.17717,0.0531 0.43412,0.19075 0.571,0.30593 l 0.24887,0.20941 h 5.07666 5.07667 l 0.43561,-0.4606 0.43562,-0.4606 v -0.84879 c 0,-0.82866 -0.006,-0.85588 -0.26277,-1.14807 -0.14453,-0.1646 -0.31373,-0.29928 -0.37601,-0.29928 -0.17041,0 -0.23558,0.16095 -0.12106,0.29895 0.25329,0.3052 -0.19029,0.83973 -0.65286,0.78671 -0.18871,-0.0216 -0.24388,-0.0758 -0.26509,-0.26016 -0.0241,-0.2092 -8.5e-4,-0.23283 0.23283,-0.23283 h 0.25962 v -0.55033 -0.55034 h -0.762 c -0.62088,0 -0.762,0.0235 -0.762,0.127 0,0.0834 -0.0834,0.127 -0.24301,0.127 h -0.24301 l 0.0196,-0.65616 c 0.0108,-0.36089 0.0344,-0.71332 0.0525,-0.78317 0.028,-0.10807 -0.18446,-0.13331 -1.42571,-0.16933 l -1.45863,-0.0423 -0.61769,-0.61383 -0.61768,-0.61383 h -0.53588 c -0.50568,0 -0.55403,0.0179 -0.85718,0.31743 l -0.32127,0.31744 0.33,0.358 c 0.40366,0.43792 0.42561,0.61579 0.076,0.61579 -0.1397,0 -0.254,-0.0398 -0.254,-0.0885 0,-0.0487 -0.0935,-0.18204 -0.20781,-0.29634 -0.32761,-0.3276 -0.82662,-0.29098 -1.20612,0.0885 -0.30735,0.30735 -0.61807,0.39153 -0.61807,0.16744 0,-0.0709 0.15492,-0.29696 0.34427,-0.50238 l 0.34427,-0.37348 -0.20126,-0.13187 c -0.28664,-0.18782 -0.57195,-0.738 -0.57195,-1.10297 0,-0.38173 0.10207,-0.59005 0.48592,-0.9918 l 0.29657,-0.31038 -0.18439,-0.11295 c -0.24633,-0.15089 -0.54178,-0.63662 -0.48198,-0.79243 0.0773,-0.20155 0.26986,-0.14527 0.58662,0.17149 0.2453,0.2453 0.35804,0.29633 0.65463,0.29633 0.29982,0 0.40393,-0.0484 0.63779,-0.29633 0.29594,-0.3138 0.51893,-0.37773 0.59807,-0.17149 0.0598,0.15581 -0.23566,0.64154 -0.48199,0.79243 -0.18365,0.11249 -0.18309,0.11427 0.13937,0.4445 l 0.32376,0.33156 h 0.75454 0.75454 l 0.65252,0.635 0.65253,0.635 h 1.25084 c 1.16161,0 1.26991,-0.0136 1.51793,-0.1905 0.38424,-0.27408 1.25372,-0.27182 1.64078,0.004 0.34346,0.24498 0.50925,0.73145 0.37779,1.10855 -0.0895,0.25683 -0.0768,0.27453 0.84358,1.17207 0.51398,0.50121 0.97855,0.91129 1.03238,0.91129 0.0717,0 0.10382,-0.77899 0.12017,-2.91627 l 0.0223,-2.91627 -0.31464,-0.32223 c -0.23867,-0.24442 -0.38206,-0.32223 -0.5938,-0.32223 -0.19169,0 -0.27915,-0.0398 -0.27915,-0.127 0,-0.10348 -0.14112,-0.127 -0.762,-0.127 -0.62089,0 -0.762,0.0235 -0.762,0.127 0,0.0834 -0.0834,0.127 -0.24301,0.127 h -0.24301 l 0.0196,-0.65616 c 0.0108,-0.3609 0.0344,-0.71332 0.0525,-0.78317 0.0288,-0.11097 -0.37678,-0.1298 -3.21327,-0.14918 l -3.24621,-0.0222 -0.32229,0.31845 -0.3223,0.31845 0.33001,0.358 c 0.40365,0.43792 0.42561,0.61579 0.076,0.61579 -0.1397,0 -0.254,-0.0398 -0.254,-0.0885 0,-0.0487 -0.0935,-0.18204 -0.20782,-0.29634 -0.32761,-0.3276 -0.82662,-0.29098 -1.20612,0.0885 -0.30735,0.30735 -0.61806,0.39153 -0.61806,0.16744 0,-0.0709 0.15492,-0.29696 0.34427,-0.50238 l 0.34426,-0.37348 -0.20125,-0.13187 c -0.29474,-0.19312 -0.57195,-0.7398 -0.57195,-1.12792 0,-0.21931 0.0737,-0.44512 0.21167,-0.6484 0.26552,-0.39127 0.26415,-0.43565 -0.0212,-0.68678 l -0.23284,-0.20493 h -5.588 -5.588 l -0.23283,0.20493 c -0.26143,0.2301 -0.29328,0.39615 -0.10583,0.55172 0.33882,0.2812 -0.17291,0.36338 -0.52723,0.0847 -0.13307,-0.10467 -0.34348,-0.16933 -0.55099,-0.16933 -0.27079,0 -0.39303,0.0573 -0.63205,0.29633 -0.4707,0.4707 -0.83991,0.34719 -0.44873,-0.1501 0.22101,-0.28097 0.21359,-0.38338 -0.0423,-0.58469 -0.20524,-0.16144 -0.21167,-0.19807 -0.21167,-1.20557 0,-1.37527 -0.0136,-1.36164 1.35673,-1.36164 0.92657,0 1.01554,0.0143 1.20709,0.19427 0.18539,0.17417 0.2759,0.19169 0.87465,0.16933 l 0.66786,-0.0249 0.0225,-2.45273 0.0225,-2.45273 -0.99483,-0.99744 -0.99484,-0.99744 h -10.77016 c -7.49533,0 -10.78703,0.0273 -10.82563,0.0898 -0.0305,0.0494 0.39418,0.545 0.94375,1.10143 l 0.99921,1.01168 4.32176,-0.0219 4.32175,-0.0219 0.027,-0.18975 c 0.0502,-0.35302 0.3164,-0.44525 1.28538,-0.44525 1.28283,0 1.27,-0.0134 1.27,1.32108 v 1.05747 l -0.25347,0.14422 c -0.30932,0.17602 -0.31427,0.24195 -0.0397,0.52855 0.44274,0.46212 0.38156,1.27097 -0.13276,1.75533 l -0.3324,0.31303 0.33971,0.34614 c 0.57003,0.58082 0.56818,1.33887 -0.005,1.87826 l -0.32967,0.31047 0.37643,0.40243 c 0.20704,0.22134 0.37643,0.44217 0.37643,0.49073 0,0.0486 -0.11676,0.0883 -0.25946,0.0883 -0.18436,0 -0.32134,-0.0735 -0.4732,-0.254 -0.30292,-0.36 -0.79371,-0.36 -1.13,0 -0.2317,0.24803 -0.67734,0.35705 -0.67734,0.16571 0,-0.0486 0.1694,-0.26939 0.37643,-0.49073 l 0.37643,-0.40243 -0.32967,-0.31047 c -0.57276,-0.53939 -0.57461,-1.29744 -0.005,-1.87826 l 0.33971,-0.34614 -0.3324,-0.31303 c -0.51432,-0.48436 -0.5755,-1.29321 -0.13276,-1.75533 0.27354,-0.28552 0.26935,-0.3527 -0.0328,-0.52457 -0.13896,-0.0791 -0.2588,-0.22683 -0.27463,-0.33867 l -0.0281,-0.19841 -4.54983,-0.0423 -4.54982,-0.0423 -1.25087,-1.24883 -1.25087,-1.24883 h -1.68993 -1.68993 l -1.9116,1.905 -1.91159,1.905 -1.39278,0.004 -1.39278,0.004 -0.32502,0.28711 c -0.24254,0.21426 -0.31149,0.32972 -0.27172,0.45502 0.0729,0.22968 -0.0696,0.2967 -0.63093,0.2967 -0.55529,0 -0.70359,-0.0678 -0.63323,-0.28944 0.0367,-0.11577 -0.0451,-0.25202 -0.29289,-0.48776 -0.33507,-0.31874 -0.34388,-0.34161 -0.34388,-0.89246 0,-0.54389 0.0131,-0.57957 0.34608,-0.94078 l 0.34608,-0.37545 -0.34608,-0.32922 c -0.33656,-0.32015 -0.34608,-0.34454 -0.34608,-0.88616 0,-0.63201 0.16576,-0.91256 0.71346,-1.20751 0.16699,-0.0899 0.29068,-0.20235 0.27487,-0.2498 -0.0386,-0.11587 -8.77701,-0.16315 -8.89205,-0.0481 -0.053,0.053 -0.01,0.14064 0.122,0.24729 0.19609,0.15878 0.20405,0.20687 0.20405,1.23215 v 1.06693 l -0.24987,0.19924 -0.24988,0.19925 0.22871,0.27181 c 0.19778,0.23504 0.22871,0.34713 0.22871,0.82875 0,0.54104 -0.01,0.56629 -0.34387,0.88407 -0.24782,0.23574 -0.32964,0.37199 -0.29289,0.48777 0.0704,0.22165 -0.078,0.28944 -0.63324,0.28944 -0.5613,0 -0.70383,-0.067 -0.63093,-0.29671 0.0398,-0.1253 -0.0292,-0.24076 -0.27172,-0.45501 l -0.32502,-0.28712 -2.01446,-0.004 -2.01446,-0.004 -0.40732,-0.381 c -0.47089,-0.44047 -0.6013,-0.47258 -0.60174,-0.14817 -3.4e-4,0.24821 -0.26669,0.75805 -0.48509,0.92855 -0.11585,0.0904 -0.0949,0.14408 0.17107,0.4385 0.28927,0.3202 0.48433,0.78693 0.48134,1.15178 -0.002,0.26123 -0.28931,0.82392 -0.53683,1.05193 -0.12256,0.11289 -0.22284,0.27015 -0.22284,0.34946 0,0.20553 -0.1896,0.34214 -0.34151,0.24607 -0.0683,-0.0432 -0.27084,-0.0791 -0.45012,-0.0798 -0.26059,-0.001 -0.38541,0.0581 -0.6223,0.29504 -0.44832,0.44832 -0.81831,0.36589 -0.48616,-0.10831 0.0726,-0.10358 0.10839,-0.22635 0.0797,-0.27284 -0.0327,-0.0529 -0.91211,-0.0845 -2.34978,-0.0845 h -2.29753 l -0.23747,0.22751 -0.23747,0.22751 v 5.15693 c 0,4.29563 0.0201,5.19446 0.12036,5.38166 0.0662,0.1236 0.1412,0.2914 0.16668,0.37289 0.043,0.13757 0.26781,0.14817 3.1419,0.14817 h 3.09558 l 1.38847,1.3335 c 0.76366,0.73342 1.47687,1.44686 1.58491,1.58541 l 0.19644,0.25192 0.0222,9.60743 c 0.0214,9.25016 0.0281,9.6139 0.18059,9.78109 0.88388,0.96923 0.50963,2.52527 -0.69328,2.8825 -0.50556,0.15013 -0.49823,0.15017 -1.00215,-0.005 z m 1.2473,-0.72121 c 0.60628,-0.56639 0.60603,-1.28247 -6.8e-4,-1.84924 l -0.21968,-0.20526 v -9.704 -9.70399 l -1.42578,-1.41687 -1.42577,-1.41687 -3.31559,0.0231 -3.31559,0.0231 3e-5,-0.35984 c 2e-5,-0.19791 -0.0381,-0.35983 -0.0846,-0.35983 -0.0556,0 -0.0847,-1.89912 -0.0847,-5.52804 v -5.52804 l 0.36304,-0.35629 0.36303,-0.3563 h 3.10954 3.10954 l 0.31626,-0.28982 c 0.27551,-0.25249 0.31626,-0.33896 0.31626,-0.67113 0,-0.46632 -0.23511,-0.81754 -0.64293,-0.96043 -0.44851,-0.15716 -6.67869,-0.15056 -7.04329,0.007 -0.14985,0.0649 -0.6344,0.48479 -1.07679,0.93299 l -0.804329,0.8149 -0.02284,5.96736 c -0.01464,3.82623 -0.05262,5.96735 -0.105834,5.96735 -0.0504,0 -0.083,0.48213 -0.083,1.22767 v 1.22766 h 1.185333 1.18533 v -0.37875 -0.37875 l 3.10443,-0.002 3.10442,-0.002 1.12891,1.11785 1.12891,1.11785 v 9.47122 9.47122 l -0.28793,0.27156 c -0.16988,0.16021 -0.32753,0.41863 -0.38452,0.63029 -0.0832,0.30888 -0.0734,0.41126 0.0705,0.73651 0.23178,0.52398 0.59577,0.74021 1.1741,0.69747 0.32345,-0.0239 0.50504,-0.0889 0.66421,-0.23755 z m -0.8977,-0.93053 c 0,-0.12116 0.0456,-0.16676 0.1472,-0.14719 0.2207,0.0425 0.24532,0.32274 0.0284,0.32274 -0.12117,0 -0.17554,-0.0544 -0.17554,-0.17555 z m -10.16,-22.86 c 0,-0.21697 0.28024,-0.19235 0.32274,0.0284 0.0196,0.1016 -0.026,0.1472 -0.1472,0.1472 -0.12116,0 -0.17554,-0.0544 -0.17554,-0.17555 z m 7.62,-13.96999 c 0,-0.12117 0.0456,-0.16677 0.1472,-0.1472 0.2207,0.0425 0.24532,0.32274 0.0283,0.32274 -0.12117,0 -0.17554,-0.0544 -0.17554,-0.17554 z m -6.67702,21.86822 c 0.58373,-0.5445 0.5432,-1.28725 -0.0998,-1.82827 -0.467,-0.39296 -1.41069,-0.23541 -1.68745,0.28172 -0.09159,0.17114 -0.147738,0.17382 -3.58257,0.17063 l -3.4895211,-0.003 -1.418167,-1.47037 -1.418167,-1.47036 v -6.12602 -6.12602 l 6.2031861,-6.20105 6.203189,-6.20105 h 28.98996 28.98996 l 1.12885,1.1178 1.12886,1.11779 v 2.81921 2.8192 h -1.22767 c -1.17122,0 -1.22767,-0.008 -1.22767,-0.16933 0,-0.15804 -0.0564,-0.16933 -0.84666,-0.16933 h -0.84667 v 0.889 0.889 h 0.84667 c 0.84278,0 0.84666,-9.6e-4 0.84666,-0.20809 v -0.20809 l 6.13834,-0.004 6.13833,-0.004 v 0.21241 0.21242 h 0.84667 0.84667 v -0.889 -0.889 h -0.84667 c -0.79022,0 -0.84667,0.0113 -0.84667,0.16933 0,0.16717 -0.0564,0.16934 -4.40267,0.16934 h -4.40266 v -3.03009 -3.03009 l -1.42381,-1.4149 -1.4238,-1.41492 h -29.41474 -29.41474 l -6.499457,6.49742 -6.4994581,6.49742 v 6.56746 6.56746 l 1.702099,1.75179 1.7021,1.75179 h 3.7135881 c 3.659193,0 3.714952,0.003 3.806638,0.17386 0.15494,0.28951 0.59498,0.50281 1.03802,0.50315 0.35248,2.6e-4 0.45035,-0.0416 0.7492,-0.32033 z m -0.94298,-0.87089 c 0,-0.12117 0.0456,-0.16676 0.1472,-0.1472 0.2207,0.0425 0.24531,0.32274 0.0284,0.32274 -0.12117,0 -0.17554,-0.0544 -0.17554,-0.17554 z m 58.42,-19.72733 c 0,-0.12117 0.0456,-0.16677 0.1472,-0.1472 0.2207,0.0425 0.24532,0.32274 0.0283,0.32274 -0.12117,0 -0.17554,-0.0544 -0.17554,-0.17554 z m 13.97001,0 c 0,-0.12117 0.0456,-0.16677 0.14719,-0.1472 0.22071,0.0425 0.24532,0.32274 0.0283,0.32274 -0.12117,0 -0.17554,-0.0544 -0.17554,-0.17554 z m -2.0338,18.42213 c 0.13409,-0.0693 0.26811,-0.20269 0.29783,-0.29633 0.0535,-0.16847 0.11745,-0.17026 6.07907,-0.17026 h 6.02502 l 0.70027,-0.69663 0.700275,-0.69664 v -5.73117 -5.73118 l -0.696245,-0.68419 c -0.59404,-0.58376 -0.73827,-0.68419 -0.98265,-0.68419 -0.20465,0 -0.33393,-0.0604 -0.4529,-0.21167 -0.14067,-0.17884 -0.23703,-0.21167 -0.62122,-0.21167 -0.37391,0 -0.47814,0.0334 -0.58652,0.18818 -0.2761,0.39418 -0.0841,0.77386 0.44474,0.87963 0.29994,0.06 0.7412,-0.0875 0.81172,-0.27123 0.0264,-0.0688 0.16246,-0.11924 0.32146,-0.11924 0.22694,0 0.37715,0.10068 0.84932,0.56923 l 0.57363,0.56922 v 5.70355 5.70354 l -0.61384,0.58167 -0.61383,0.58168 -5.90333,0.004 -5.90332,0.004 -0.12519,-0.24208 c -0.2475,-0.47862 -0.9023,-0.54117 -1.23517,-0.11799 -0.29608,0.3764 -0.15105,0.94658 0.28557,1.12278 0.26302,0.10615 0.3724,0.099 0.64531,-0.0421 z m -0.5062,-0.64214 c 0,-0.12116 0.0456,-0.16676 0.14719,-0.14719 0.22071,0.0425 0.24532,0.32274 0.0283,0.32274 -0.12117,0 -0.17554,-0.0544 -0.17554,-0.17555 z m 11.39825,-13.862 c -0.0746,-0.12064 0.0956,-0.29723 0.23487,-0.24378 0.19131,0.0734 0.16931,0.31133 -0.0288,0.31133 -0.0904,0 -0.18312,-0.0304 -0.20608,-0.0675 z m -10.89205,11.96414 c 0.13409,-0.0693 0.26811,-0.20269 0.29783,-0.29633 0.0534,-0.16822 0.1186,-0.17026 5.44407,-0.17026 h 5.39002 l 0.70027,-0.69663 0.70027,-0.69664 -10e-4,-1.14486 -0.001,-1.14487 -0.81571,-0.8255 c -0.47982,-0.48559 -0.88399,-0.8255 -0.98154,-0.8255 -0.0912,0 -0.24075,-0.0952 -0.33233,-0.21167 -0.14066,-0.17884 -0.23702,-0.21167 -0.62121,-0.21167 -0.37392,0 -0.47814,0.0334 -0.58652,0.18818 -0.2761,0.39418 -0.0841,0.77386 0.44474,0.87963 0.29994,0.06 0.7412,-0.0875 0.81172,-0.27123 0.095,-0.24747 0.36518,-0.0981 1.04413,0.57739 l 0.70027,0.69663 v 1.15214 1.15215 l -0.58443,0.56422 -0.58443,0.56423 h -5.29773 -5.29772 l -0.12519,-0.24208 c -0.2475,-0.47862 -0.9023,-0.54117 -1.23517,-0.11799 -0.29608,0.3764 -0.15105,0.94658 0.28557,1.12278 0.26302,0.10614 0.3724,0.099 0.64531,-0.0421 z m -0.5062,-0.64214 c 0,-0.12116 0.0456,-0.16676 0.14719,-0.14719 0.22071,0.0425 0.24532,0.32274 0.0283,0.32274 -0.12117,0 -0.17554,-0.0544 -0.17554,-0.17555 z m 10.12825,-4.972 c -0.0746,-0.12064 0.0956,-0.29723 0.23487,-0.24378 0.19131,0.0734 0.16931,0.31133 -0.0288,0.31133 -0.0904,0 -0.18312,-0.0304 -0.20608,-0.0675 z m 0.56876,-0.87312 c 0.11347,-0.0517 0.25093,-0.19192 0.30545,-0.3116 0.0831,-0.18245 0.073,-0.25272 -0.0628,-0.43516 -0.13477,-0.18109 -0.24135,-0.22181 -0.63551,-0.24283 -0.42784,-0.0228 -0.48724,-0.004 -0.61495,0.1905 l -0.14136,0.21576 h -1.48695 -1.48695 l -0.635,-0.635 -0.635,-0.635 h -0.86371 -0.86371 l -0.10661,-0.25738 c -0.23041,-0.55626 -0.89386,-0.68577 -1.36348,-0.26617 -0.57964,0.51791 -0.19786,1.45488 0.59279,1.45488 0.35545,0 0.727,-0.23256 0.81512,-0.51021 0.048,-0.15127 0.13103,-0.16712 0.87496,-0.16712 h 0.82192 l 0.63076,0.635 0.63075,0.635 h 1.53692 c 1.31027,0 1.55363,0.0201 1.65018,0.13647 0.22646,0.27286 0.6775,0.35673 1.03716,0.19286 z m -0.53701,-0.50487 c 0,-0.21698 0.28023,-0.19236 0.32273,0.0283 0.0196,0.1016 -0.026,0.1472 -0.1472,0.1472 -0.12116,0 -0.17553,-0.0544 -0.17553,-0.17554 z m -7.65175,-1.16201 c -0.0746,-0.12064 0.0956,-0.29723 0.23487,-0.24378 0.19131,0.0734 0.16931,0.31133 -0.0288,0.31133 -0.0904,0 -0.18312,-0.0304 -0.20608,-0.0675 z m 0.73499,-4.50666 c 0.11994,-0.0943 0.24195,-0.24675 0.27112,-0.33867 0.0517,-0.16296 0.14336,-0.16712 3.67489,-0.16712 3.50238,0 3.62684,0.006 3.77358,0.16767 0.33731,0.37273 1.11092,0.28619 1.30799,-0.14632 0.0851,-0.18685 0.0756,-0.255 -0.0611,-0.43878 -0.13477,-0.18109 -0.24135,-0.22181 -0.63551,-0.24283 -0.42784,-0.0228 -0.48724,-0.004 -0.61495,0.1905 l -0.14137,0.21576 h -3.62066 -3.62066 l -0.1066,-0.25738 c -0.23041,-0.55626 -0.89386,-0.68577 -1.36348,-0.26617 -0.57964,0.51791 -0.19786,1.45488 0.59279,1.45488 0.19911,0 0.41076,-0.0667 0.54399,-0.17154 z m -0.73499,-0.57334 c -0.0746,-0.12064 0.0956,-0.29723 0.23487,-0.24378 0.19131,0.0734 0.16931,0.31133 -0.0288,0.31133 -0.0904,0 -0.18312,-0.0304 -0.20608,-0.0675 z m 8.92175,-0.10799 c 0,-0.12117 0.0456,-0.16677 0.14719,-0.1472 0.22071,0.0425 0.24532,0.32274 0.0284,0.32274 -0.12117,0 -0.17554,-0.0544 -0.17554,-0.17554 z m -31.20347,-1.82443 c 0.17545,-0.0673 0.3848,-0.47048 0.3848,-0.74104 0,-0.11516 -0.0986,-0.3266 -0.21919,-0.46987 -0.36873,-0.43821 -1.04163,-0.33645 -1.26195,0.19084 -0.14678,0.35131 -0.074,0.69721 0.19046,0.90523 0.20906,0.16445 0.63567,0.21853 0.90588,0.11484 z m -0.57829,-0.60762 c -0.0746,-0.12064 0.0956,-0.29723 0.23488,-0.24378 0.19131,0.0734 0.16931,0.31133 -0.0288,0.31133 -0.0904,0 -0.18312,-0.0304 -0.20608,-0.0676 z m 0.57829,-1.93238 c 0.17545,-0.0673 0.3848,-0.47048 0.3848,-0.74104 0,-0.11516 -0.0986,-0.3266 -0.21919,-0.46987 -0.36873,-0.43821 -1.04163,-0.33645 -1.26195,0.19084 -0.14678,0.35131 -0.074,0.69721 0.19046,0.90523 0.20906,0.16445 0.63567,0.21853 0.90588,0.11484 z m -0.57829,-0.60762 c -0.0746,-0.12064 0.0956,-0.29723 0.23488,-0.24378 0.19131,0.0734 0.16931,0.31133 -0.0288,0.31133 -0.0904,0 -0.18312,-0.0304 -0.20608,-0.0676 z m -41.10973,-0.77261 c 0.28214,-0.28214 0.32289,-0.63109 0.11961,-1.0242 -0.25458,-0.4923 -0.87834,-0.5793 -1.32054,-0.18419 -0.21496,0.19206 -0.26758,0.30688 -0.27528,0.6007 -0.008,0.30904 0.0316,0.39997 0.26575,0.60922 0.38487,0.34387 0.86566,0.34327 1.21046,-0.002 z m -0.80027,-0.49739 c -0.0746,-0.12064 0.0956,-0.29723 0.23488,-0.24378 0.19131,0.0734 0.16931,0.31133 -0.0288,0.31133 -0.0904,0 -0.18313,-0.0304 -0.20609,-0.0676 z m 8.42027,0.49739 c 0.28214,-0.28214 0.32289,-0.63109 0.11961,-1.0242 -0.15715,-0.3039 -0.36495,-0.42164 -0.74414,-0.42164 -0.33014,0 -0.71041,0.25862 -0.82555,0.56145 l -0.0763,0.20055 h -2.04709 -2.0471 l -0.95684,-0.94405 c -0.79378,-0.78316 -0.94307,-0.96978 -0.876,-1.0951 0.18558,-0.34677 -7.6e-4,-0.99529 -0.3378,-1.17568 -0.31045,-0.16615 -0.74692,-0.10245 -1.02978,0.15028 -0.21495,0.19206 -0.26757,0.30688 -0.27528,0.6007 -0.008,0.31194 0.031,0.39948 0.27751,0.61971 0.26199,0.23409 0.32541,0.2525 0.7272,0.21103 l 0.44017,-0.0454 0.96353,0.96627 0.96353,0.96627 h 2.13921 c 1.78519,0 2.13922,0.0198 2.13922,0.11947 0,0.0657 0.11722,0.21811 0.26049,0.33867 0.37364,0.31439 0.85413,0.30292 1.18535,-0.0283 z m -0.76852,-0.60538 c 0,-0.12117 0.0456,-0.16677 0.1472,-0.1472 0.2207,0.0425 0.24532,0.32274 0.0284,0.32274 -0.12117,0 -0.17554,-0.0544 -0.17554,-0.17554 z m -7.65175,-2.43201 c -0.0746,-0.12064 0.0956,-0.29723 0.23488,-0.24378 0.19131,0.0734 0.16931,0.31133 -0.0288,0.31133 -0.0904,0 -0.18313,-0.0304 -0.20609,-0.0676 z m 18.515,3.11334 c 0.11994,-0.0943 0.24195,-0.24675 0.27112,-0.33867 0.0502,-0.15809 0.134,-0.16712 1.55088,-0.16712 h 1.49783 l 1.90359,-1.905 1.90359,-1.905 h 1.86443 1.86443 l 1.26788,1.27 1.26789,1.27 h 4.67378 4.67378 l 0.0263,0.3175 0.0263,0.3175 0.82872,0.0243 0.82872,0.0243 -0.0244,-0.78627 -0.0244,-0.78627 h -0.80434 -0.80433 l -0.0263,0.3175 -0.0263,0.3175 h -4.62728 -4.62726 l -1.27,-1.27 -1.27,-1.27 h -1.95255 -1.95255 l -1.905,1.905 -1.905,1.905 h -1.44814 -1.44813 l -0.10661,-0.25738 c -0.23014,-0.5556 -0.89387,-0.68576 -1.36235,-0.26717 -0.21496,0.19206 -0.26758,0.30688 -0.27528,0.6007 -0.008,0.30904 0.0316,0.39997 0.26575,0.60922 0.33883,0.30274 0.81554,0.33372 1.14519,0.0744 z m -0.70325,-0.68133 c 0,-0.12117 0.0456,-0.16677 0.1472,-0.1472 0.2207,0.0425 0.24532,0.32274 0.0284,0.32274 -0.12117,0 -0.17554,-0.0544 -0.17554,-0.17554 z m 24.13,-1.27 c 0,-0.12117 0.0456,-0.16677 0.1472,-0.1472 0.2207,0.0425 0.24532,0.32274 0.0284,0.32274 -0.12117,0 -0.17554,-0.0544 -0.17554,-0.17554 z m -33.274,-1.22146 v -0.80434 h -0.84666 -0.84667 v 0.80434 0.80433 h 0.84667 0.84666 z m -1.016,-0.0485 c 0,-0.21698 0.28024,-0.19236 0.32274,0.0283 0.0196,0.1016 -0.026,0.1472 -0.1472,0.1472 -0.12116,0 -0.17554,-0.0544 -0.17554,-0.17554 z m 10.92852,0.60538 c 0.28214,-0.28214 0.32289,-0.63109 0.11961,-1.0242 -0.25458,-0.4923 -0.87834,-0.5793 -1.32054,-0.18419 -0.21496,0.19206 -0.26758,0.30688 -0.27528,0.6007 -0.008,0.30904 0.0316,0.39997 0.26575,0.60922 0.38487,0.34387 0.86566,0.34327 1.21046,-0.002 z m -0.76852,-0.60538 c 0,-0.21698 0.28024,-0.19236 0.32274,0.0283 0.0196,0.1016 -0.026,0.1472 -0.1472,0.1472 -0.12116,0 -0.17554,-0.0544 -0.17554,-0.17554 z m -1.35466,43.59472 c -0.89582,-0.25455 -1.42746,-1.19909 -1.18506,-2.10541 0.19963,-0.74641 1.16018,-1.37367 1.875,-1.22441 0.36193,0.0756 0.96856,0.42242 1.03315,0.59072 0.044,0.11464 0.96346,0.12925 8.13292,0.12925 5.7158,0 8.09994,-0.0269 8.14006,-0.0918 0.0321,-0.0519 -0.71098,-0.86268 -1.70951,-1.86533 l -1.76623,-1.77354 -0.0221,-11.40612 -0.0221,-11.40612 -1.3316,-1.33355 c -0.73237,-0.73345 -1.35883,-1.33355 -1.39211,-1.33355 -0.0333,0 -0.12091,0.12726 -0.19471,0.28279 -0.0738,0.15554 -0.251,0.36915 -0.39375,0.47469 l -0.25955,0.1919 0.35032,0.35695 c 0.58223,0.59325 0.58355,1.34522 0.003,1.89165 l -0.33239,0.31303 0.3397,0.34614 c 0.57123,0.58203 0.56828,1.33877 -0.007,1.88083 l -0.33239,0.31303 0.3397,0.34614 c 0.57495,0.58583 0.56833,1.33001 -0.0168,1.89229 l -0.34285,0.32944 0.25893,0.19143 c 0.68783,0.50854 0.68783,1.59817 0,2.10671 l -0.25893,0.19143 0.34285,0.32945 c 0.58516,0.56227 0.59179,1.30646 0.0168,1.89228 l -0.3397,0.34614 0.33239,0.31303 c 0.57559,0.54206 0.57854,1.2988 0.007,1.88083 l -0.3397,0.34614 0.33239,0.31303 c 0.57559,0.54206 0.57854,1.2988 0.007,1.88083 l -0.33971,0.34614 0.3324,0.31303 c 0.57559,0.54206 0.57853,1.2988 0.007,1.88083 l -0.33971,0.34614 0.3324,0.31303 c 0.57559,0.54206 0.57853,1.2988 0.007,1.88083 l -0.33971,0.34614 0.3324,0.31303 c 0.9684,0.91198 0.10714,2.52931 -1.16456,2.18688 -0.97407,-0.26229 -1.26721,-1.4866 -0.52361,-2.18688 l 0.3324,-0.31303 -0.34491,-0.35144 c -0.30517,-0.31095 -0.35222,-0.41344 -0.40838,-0.88975 l -0.0635,-0.53832 -7.20977,-7.16374 c -3.96537,-3.94005 -7.21842,-7.17881 -7.22898,-7.19723 -0.0106,-0.0184 -0.0391,-1.95756 -0.0635,-4.30917 l -0.0443,-4.27567 -0.43479,-0.0438 c -0.36432,-0.0367 -0.49881,-0.10277 -0.82973,-0.40781 -0.21722,-0.20022 -0.44067,-0.34888 -0.49655,-0.33034 -0.0559,0.0185 -0.12419,0.19995 -0.15181,0.40314 -0.0394,0.28995 -0.11948,0.42931 -0.37209,0.64768 l -0.32188,0.27824 0.35093,0.3807 c 0.33578,0.36428 0.35092,0.40426 0.35092,0.92644 0,0.4652 -0.0327,0.58461 -0.22175,0.80926 -0.56513,0.67162 -1.45885,0.695 -2.05784,0.0538 l -0.20526,-0.21971 h -2.52524 -2.52524 v 0.19854 c 0,0.40325 -0.21604,0.47879 -1.36938,0.47879 -1.37818,0 -1.33996,0.0382 -1.33996,-1.33763 v -1.02797 l 0.24586,-0.18177 0.24585,-0.18177 -0.24585,-0.38767 c -0.26295,-0.41464 -0.322,-0.89425 -0.15118,-1.22792 0.0521,-0.10172 0.22813,-0.32461 0.39124,-0.49533 l 0.29656,-0.31038 -0.18438,-0.11295 c -0.24634,-0.15089 -0.54178,-0.63662 -0.48199,-0.79243 0.0773,-0.20155 0.26987,-0.14527 0.58663,0.17149 0.2453,0.2453 0.35803,0.29633 0.65463,0.29633 0.29981,0 0.40393,-0.0484 0.63778,-0.29633 0.29595,-0.3138 0.51893,-0.37773 0.59808,-0.17149 0.0598,0.15581 -0.23566,0.64154 -0.48199,0.79243 -0.18364,0.11249 -0.18309,0.11427 0.13937,0.4445 l 0.32376,0.33156 h 2.5903 2.5903 l 0.32414,-0.33195 0.32414,-0.33196 -0.34929,-0.33227 c -0.34255,-0.32586 -0.34929,-0.3434 -0.34929,-0.90882 0,-0.56088 0.009,-0.58517 0.33303,-0.89336 0.23028,-0.21906 0.31989,-0.36704 0.29045,-0.47964 -0.0616,-0.23546 0.12076,-0.34484 0.61876,-0.37119 0.49204,-0.026 0.74215,0.11166 0.67428,0.37119 -0.0294,0.1126 0.0602,0.26058 0.29045,0.47964 0.31449,0.29916 0.33303,0.34474 0.33303,0.81851 v 0.50171 l 0.74251,0.73907 0.74251,0.73907 h 0.616 c 0.54115,0 0.64127,0.0253 0.82383,0.20781 l 0.20782,0.20782 v 4.42641 4.42641 l 6.58209,6.5841 c 3.62015,3.62126 6.6122,6.58411 6.64899,6.58411 0.0792,0 0.11473,-0.10151 0.18641,-0.53231 0.037,-0.22224 0.15536,-0.4167 0.38576,-0.63367 l 0.33239,-0.31303 -0.33971,-0.34614 c -0.57122,-0.58203 -0.56828,-1.33877 0.007,-1.88083 l 0.3324,-0.31303 -0.33971,-0.34614 c -0.57122,-0.58203 -0.56828,-1.33877 0.007,-1.88083 l 0.3324,-0.31303 -0.33971,-0.34614 c -0.57494,-0.58582 -0.56832,-1.33001 0.0168,-1.89228 l 0.34286,-0.32945 -0.25893,-0.19143 c -0.68784,-0.50854 -0.68784,-1.59817 0,-2.10671 l 0.25893,-0.19143 -0.34355,-0.33011 -0.34354,-0.3301 h -1.33389 -1.33388 l -2.84086,-2.83634 c -1.87257,-1.8696 -2.89971,-2.83633 -3.01353,-2.83633 -0.095,0 -0.24663,-0.0541 -0.33703,-0.12018 -0.14772,-0.10801 -0.16435,-0.22874 -0.16435,-1.19335 v -1.07319 l 0.2464,-0.19647 0.24639,-0.19647 -0.22522,-0.26766 c -0.19288,-0.22923 -0.22523,-0.34605 -0.22523,-0.8134 0,-0.52095 0.0157,-0.56278 0.34608,-0.92118 l 0.34607,-0.37545 -0.34607,-0.32922 c -0.33889,-0.32237 -0.34608,-0.3412 -0.34608,-0.90576 0,-0.56088 0.009,-0.58517 0.33303,-0.89336 0.23027,-0.21906 0.31989,-0.36704 0.29044,-0.47964 -0.0616,-0.23546 0.12077,-0.34484 0.61876,-0.37119 0.49205,-0.026 0.74216,0.11166 0.67429,0.37119 -0.0294,0.1126 0.0602,0.26058 0.29045,0.47964 0.31484,0.2995 0.33303,0.34434 0.33303,0.82098 0,0.27925 0.0453,0.5495 0.1016,0.60578 0.0754,0.0754 0.91246,0.1016 3.24248,0.1016 h 3.14089 l 0.31149,-0.319 0.31149,-0.319 -0.33222,-0.31286 c -0.58079,-0.54696 -0.57873,-1.29824 0.005,-1.89323 0.3483,-0.35489 0.35011,-0.35991 0.16962,-0.47181 -0.24777,-0.15361 -0.62978,-0.717 -0.5613,-0.8278 0.10213,-0.16524 0.36878,-0.0919 0.63545,0.17476 0.24079,0.2408 0.30169,0.26082 0.68212,0.22426 0.33501,-0.0322 0.44628,-0.009 0.56195,0.11924 0.13515,0.14933 0.13527,0.16835 0.002,0.30179 -0.13344,0.13345 -0.1209,0.16434 0.19905,0.49034 0.5731,0.58395 0.57051,1.33138 -0.006,1.88585 l -0.3343,0.32122 0.33181,0.32401 c 0.1825,0.1782 0.35685,0.42388 0.38744,0.54595 0.0339,0.1352 0.97374,1.14843 2.40488,2.59261 1.88085,1.89799 2.3606,2.42764 2.40615,2.65642 0.0313,0.15716 0.0569,5.31945 0.0569,11.47175 v 11.18601 l 2.26425,2.26541 2.26424,2.26541 h 6.26825 c 5.59023,0 6.28903,-0.0145 6.46029,-0.13451 l 0.19203,-0.13451 -0.34253,-0.3716 c -0.58875,-0.63871 -0.33307,-1.02632 0.27554,-0.41771 0.2453,0.2453 0.35804,0.29633 0.65464,0.29633 0.29981,0 0.40392,-0.0484 0.63778,-0.29633 0.31533,-0.33436 0.62951,-0.3968 0.62951,-0.12511 0,0.0942 -0.15492,0.33929 -0.34426,0.54471 l -0.34427,0.37349 0.20125,0.13186 c 0.29447,0.19294 0.57195,0.73982 0.57195,1.12722 0,0.39824 -0.25829,0.82172 -0.6707,1.09964 -0.36172,0.24377 -0.9106,0.25311 -1.3613,0.0232 -0.32842,-0.16755 -0.49901,-0.16934 -16.17887,-0.16934 h -15.84691 l -0.32177,0.2907 c -0.29857,0.26975 -0.79618,0.48009 -1.09575,0.46319 -0.0698,-0.004 -0.26035,-0.045 -0.42333,-0.0914 z m 1.25611,-0.86062 0.3181,-0.31062 16.11411,0.002 c 15.92353,0.002 16.11663,0.004 16.32698,0.1697 0.33473,0.2633 0.82342,0.22441 1.13843,-0.0906 0.23283,-0.23283 0.25369,-0.29668 0.21349,-0.65338 -0.0325,-0.28848 -0.1053,-0.44757 -0.26928,-0.58862 -0.28765,-0.24743 -0.78693,-0.25845 -1.08505,-0.024 -0.21103,0.166 -0.34347,0.16933 -6.7218,0.16933 h -6.50654 l -2.39128,-2.39238 -2.39127,-2.39238 v -11.43001 -11.43001 l -2.413,-2.41188 c -1.32715,-1.32654 -2.413,-2.47589 -2.413,-2.55412 0,-0.0782 -0.0986,-0.25945 -0.2192,-0.40272 -0.36022,-0.42811 -1.00018,-0.34438 -1.26377,0.16535 l -0.13005,0.25149 h -3.34191 -3.34192 l -0.33736,-0.30479 c -0.27482,-0.24829 -0.32196,-0.33358 -0.25425,-0.4601 0.18776,-0.35083 0.004,-0.99844 -0.33552,-1.17994 -0.31098,-0.16643 -0.74692,-0.10246 -1.0309,0.15128 -0.22225,0.19859 -0.26688,0.30029 -0.26688,0.60821 0,0.31122 0.0441,0.40916 0.27863,0.61871 0.25318,0.22621 0.31902,0.24478 0.72103,0.20329 0.42715,-0.0441 0.45355,-0.0342 0.7661,0.28584 l 0.3237,0.3315 h 3.45415 c 2.93585,0 3.45415,0.0181 3.45415,0.12085 0,0.16421 0.40529,0.47181 0.62164,0.47181 0.11655,0 0.93714,0.75976 2.44391,2.26275 l 2.26845,2.26274 v 11.43541 11.43542 l 2.18016,2.17641 2.18017,2.17642 -8.90121,4.3e-4 -8.9012,4.2e-4 -0.33867,-0.33867 c -0.3025,-0.3025 -0.38267,-0.33863 -0.75079,-0.33835 -0.9294,6.8e-4 -1.50284,0.8316 -1.14002,1.65182 0.23108,0.52239 0.59549,0.73775 1.17573,0.69484 0.37894,-0.028 0.49677,-0.0809 0.76594,-0.34374 z m -1.00211,-0.82411 c 0,-0.12116 0.0456,-0.16676 0.14719,-0.14719 0.2207,0.0425 0.24532,0.32274 0.0284,0.32274 -0.12116,0 -0.17554,-0.0544 -0.17554,-0.17555 z m 34.12066,0 c 0,-0.12116 0.0456,-0.16676 0.1472,-0.14719 0.2207,0.0425 0.24532,0.32274 0.0283,0.32274 -0.12117,0 -0.17554,-0.0544 -0.17554,-0.17555 z m -24.13,-33.02007 c 0,-0.21698 0.28024,-0.19236 0.32274,0.0283 0.0196,0.1016 -0.026,0.1472 -0.1472,0.1472 -0.12116,0 -0.17554,-0.0544 -0.17554,-0.17554 z m -8.89,-1.27 c 0,-0.21698 0.28024,-0.19236 0.32274,0.0283 0.0196,0.1016 -0.026,0.1472 -0.1472,0.1472 -0.12116,0 -0.17554,-0.0544 -0.17554,-0.17554 z m 9.55035,29.80653 c 0.51589,-0.48063 0.21279,-1.35233 -0.47021,-1.35233 -0.15726,0 -0.36286,0.0412 -0.45687,0.0915 -0.22482,0.12032 -0.40667,0.56826 -0.35033,0.86295 0.0988,0.51666 0.88654,0.76204 1.27741,0.3979 z m -0.6921,-0.48854 c -0.0746,-0.12064 0.0956,-0.29723 0.23488,-0.24378 0.19131,0.0734 0.16931,0.31133 -0.0288,0.31133 -0.0904,0 -0.18313,-0.0304 -0.20609,-0.0675 z m 0.6921,-2.05146 c 0.34976,-0.32586 0.34744,-0.85619 -0.005,-1.18639 -0.14735,-0.13797 -0.27578,-0.17143 -0.57767,-0.15051 l -0.3882,0.0269 -7.2953,-7.24459 -7.29531,-7.24459 v -4.50291 -4.50291 h -0.69033 -0.69034 l -0.95684,-0.94405 c -0.79378,-0.78316 -0.94307,-0.96978 -0.876,-1.0951 0.18559,-0.34677 -7.6e-4,-0.99529 -0.3378,-1.17568 -0.31098,-0.16643 -0.74692,-0.10246 -1.0309,0.15128 -0.22225,0.19859 -0.26688,0.30029 -0.26688,0.60821 0,0.31122 0.0441,0.40916 0.27863,0.61871 0.25284,0.22591 0.31936,0.24474 0.7188,0.20352 l 0.44018,-0.0454 0.96352,0.96627 0.96353,0.96627 h 0.57288 0.57288 v 4.38132 4.38132 l 7.37027,7.37062 c 6.95151,6.95185 7.36569,7.38264 7.28984,7.58213 -0.19363,0.50931 0.17451,1.00727 0.74468,1.00727 0.19567,0 0.37973,-0.0638 0.49556,-0.17167 z m -0.6921,-0.48854 c -0.0746,-0.12064 0.0956,-0.29723 0.23488,-0.24378 0.19131,0.0734 0.16931,0.31133 -0.0288,0.31133 -0.0904,0 -0.18313,-0.0304 -0.20609,-0.0676 z m -19.01825,-26.77799 c 0,-0.21698 0.28024,-0.19236 0.32274,0.0283 0.0196,0.1016 -0.026,0.1472 -0.1472,0.1472 -0.12116,0 -0.17554,-0.0544 -0.17554,-0.17554 z m 19.71035,24.72653 c 0.51589,-0.48063 0.21279,-1.35233 -0.47021,-1.35233 -0.15726,0 -0.36286,0.0412 -0.45687,0.0915 -0.22482,0.12032 -0.40667,0.56826 -0.35033,0.86295 0.0988,0.51666 0.88654,0.76204 1.27741,0.3979 z m -0.6921,-0.48854 c -0.0746,-0.12064 0.0956,-0.29723 0.23488,-0.24378 0.19131,0.0734 0.16931,0.31133 -0.0288,0.31133 -0.0904,0 -0.18313,-0.0304 -0.20609,-0.0675 z m 0.6921,-2.05146 c 0.51589,-0.48063 0.21279,-1.35233 -0.47021,-1.35233 -0.15726,0 -0.36286,0.0412 -0.45687,0.0915 -0.22482,0.12032 -0.40667,0.56826 -0.35033,0.86295 0.0988,0.51666 0.88654,0.76204 1.27741,0.3979 z m -0.6921,-0.48854 c -0.0746,-0.12064 0.0956,-0.29723 0.23488,-0.24378 0.19131,0.0734 0.16931,0.31133 -0.0288,0.31133 -0.0904,0 -0.18313,-0.0304 -0.20609,-0.0675 z m 0.6921,-2.05146 c 0.51589,-0.48063 0.21279,-1.35233 -0.47021,-1.35233 -0.15726,0 -0.36286,0.0412 -0.45687,0.0915 -0.22482,0.12032 -0.40667,0.56826 -0.35033,0.86295 0.0988,0.51666 0.88654,0.76204 1.27741,0.3979 z m -0.6921,-0.48854 c -0.0746,-0.12064 0.0956,-0.29723 0.23488,-0.24378 0.19131,0.0734 0.16931,0.31133 -0.0288,0.31133 -0.0904,0 -0.18313,-0.0304 -0.20609,-0.0676 z m 0.6921,-2.05146 c 0.51589,-0.48063 0.21279,-1.35233 -0.47021,-1.35233 -0.15726,0 -0.36286,0.0412 -0.45687,0.0915 -0.22482,0.12032 -0.40667,0.56826 -0.35033,0.86295 0.0988,0.51666 0.88654,0.76204 1.27741,0.3979 z m -0.6921,-0.48854 c -0.0746,-0.12064 0.0956,-0.29723 0.23488,-0.24378 0.19131,0.0734 0.16931,0.31133 -0.0288,0.31133 -0.0904,0 -0.18313,-0.0304 -0.20609,-0.0675 z m 0.6921,-2.05146 c 0.51589,-0.48063 0.21279,-1.35233 -0.47021,-1.35233 -0.15726,0 -0.36286,0.0412 -0.45687,0.0915 -0.22482,0.12032 -0.40667,0.56826 -0.35033,0.86295 0.0988,0.51666 0.88654,0.76204 1.27741,0.3979 z m -0.6921,-0.48854 c -0.0746,-0.12064 0.0956,-0.29723 0.23488,-0.24378 0.19131,0.0734 0.16931,0.31133 -0.0288,0.31133 -0.0904,0 -0.18313,-0.0304 -0.20609,-0.0675 z m 0.6921,-2.05146 c 0.51589,-0.48063 0.21279,-1.35233 -0.47021,-1.35233 -0.37603,0 -0.583,0.11882 -0.74177,0.42585 l -0.13005,0.25149 h -1.37045 -1.37045 l -2.56438,-2.55931 c -1.43499,-1.43216 -2.56437,-2.62539 -2.56437,-2.70934 0,-0.11858 0.071,-0.15002 0.33867,-0.15002 h 0.33866 v -0.80433 -0.80434 h -0.84666 -0.84667 v 0.80434 0.80433 h 0.33867 c 0.26567,0 0.33866,0.0318 0.33866,0.14768 0,0.0812 1.20946,1.35757 2.68767,2.83633 l 2.68767,2.68866 h 1.461 c 1.2092,0 1.461,0.0208 1.461,0.12085 0,0.0665 0.10039,0.19982 0.22308,0.29633 0.29248,0.23007 0.78511,0.23189 1.02993,0.004 z m -0.66035,-0.59654 c 0,-0.21697 0.28024,-0.19235 0.32274,0.0284 0.0196,0.1016 -0.026,0.1472 -0.1472,0.1472 -0.12116,0 -0.17554,-0.0544 -0.17554,-0.17555 z m -8.89,-6.34999 c 0,-0.21698 0.28024,-0.19236 0.32274,0.0283 0.0196,0.1016 -0.026,0.1472 -0.1472,0.1472 -0.12116,0 -0.17554,-0.0544 -0.17554,-0.17554 z m 9.55035,4.40653 c 0.51589,-0.48063 0.21279,-1.35233 -0.47021,-1.35233 -0.37603,0 -0.583,0.11882 -0.74177,0.42585 l -0.13005,0.25149 h -0.82044 -0.82044 l -2.85553,-2.85098 c -2.3825,-2.37871 -2.8423,-2.87568 -2.77571,-3.0001 0.1846,-0.34493 -0.003,-0.99387 -0.33884,-1.17375 -0.31098,-0.16643 -0.74692,-0.10246 -1.0309,0.15128 -0.22225,0.19859 -0.26688,0.30029 -0.26688,0.60821 0,0.31122 0.0441,0.40916 0.27863,0.61871 0.25271,0.2258 0.31948,0.24473 0.71799,0.2036 l 0.43936,-0.0453 2.87026,2.87118 2.87025,2.87119 h 0.91063 c 0.73243,0 0.91064,0.0236 0.91064,0.12085 0,0.0665 0.10039,0.19982 0.22308,0.29633 0.29248,0.23007 0.78511,0.23189 1.02993,0.004 z m -0.66035,-0.59653 c 0,-0.21698 0.28024,-0.19236 0.32274,0.0283 0.0196,0.1016 -0.026,0.1472 -0.1472,0.1472 -0.12116,0 -0.17554,-0.0544 -0.17554,-0.17554 z m -8.89,-6.35 c 0,-0.21698 0.28024,-0.19236 0.32274,0.0283 0.0196,0.1016 -0.026,0.1472 -0.1472,0.1472 -0.12116,0 -0.17554,-0.0544 -0.17554,-0.17554 z m 9.55035,4.40653 c 0.51589,-0.48063 0.21279,-1.35233 -0.47021,-1.35233 -0.15726,0 -0.36286,0.0412 -0.45687,0.0915 -0.22482,0.12032 -0.40667,0.56826 -0.35033,0.86295 0.0988,0.51666 0.88654,0.76204 1.27741,0.3979 z m -0.6921,-0.48854 c -0.0746,-0.12064 0.0956,-0.29723 0.23488,-0.24378 0.19131,0.0734 0.16931,0.31133 -0.0288,0.31133 -0.0904,0 -0.18313,-0.0304 -0.20609,-0.0675 z m -25.62225,-0.82145 v -0.381 h 2.96334 c 2.49466,0 2.96333,0.0189 2.96333,0.11947 0,0.0657 0.11722,0.21811 0.2605,0.33867 0.7646,0.64337 1.76478,-0.16331 1.30496,-1.05251 -0.15715,-0.30389 -0.36495,-0.42163 -0.74414,-0.42163 -0.33014,0 -0.71041,0.25862 -0.82555,0.56145 l -0.0763,0.20055 h -2.92309 -2.9231 v -0.381 -0.381 h -0.84666 -0.84667 v 0.889 0.889 h 0.84667 0.84666 z m -1.016,-0.55654 c 0,-0.21698 0.28024,-0.19236 0.32274,0.0283 0.0196,0.1016 -0.026,0.1472 -0.1472,0.1472 -0.12116,0 -0.17554,-0.0544 -0.17554,-0.17554 z m 7.62,0 c 0,-0.21698 0.28024,-0.19236 0.32274,0.0283 0.0196,0.1016 -0.026,0.1472 -0.1472,0.1472 -0.12116,0 -0.17554,-0.0544 -0.17554,-0.17554 z m 19.71035,-0.67347 c 0.51589,-0.48063 0.21279,-1.35233 -0.47021,-1.35233 -0.15726,0 -0.36286,0.0412 -0.45687,0.0915 -0.22482,0.12032 -0.40667,0.56826 -0.35033,0.86295 0.0988,0.51666 0.88654,0.76204 1.27741,0.3979 z m -0.6921,-0.48854 c -0.0746,-0.12064 0.0956,-0.29723 0.23488,-0.24378 0.19131,0.0734 0.16931,0.31133 -0.0288,0.31133 -0.0904,0 -0.18313,-0.0304 -0.20609,-0.0676 z m -25.935,-0.69666 c 0.11994,-0.0944 0.24195,-0.24675 0.27112,-0.33867 0.0515,-0.16219 0.14043,-0.16712 3.01067,-0.16712 2.48975,0 2.95763,0.0189 2.95763,0.11947 0,0.0657 0.11722,0.21811 0.2605,0.33867 0.7646,0.64337 1.76478,-0.16331 1.30496,-1.05251 -0.15715,-0.30389 -0.36495,-0.42163 -0.74414,-0.42163 -0.33014,0 -0.71041,0.25862 -0.82555,0.56145 l -0.0763,0.20055 h -2.91282 -2.91282 l -0.10661,-0.25738 c -0.23041,-0.55626 -0.89386,-0.68577 -1.36348,-0.26617 -0.57963,0.51791 -0.19786,1.45488 0.59279,1.45488 0.19911,0 0.41077,-0.0667 0.544,-0.17154 z m -0.735,-0.57334 c -0.0746,-0.12064 0.0956,-0.29723 0.23488,-0.24378 0.19131,0.0734 0.16931,0.31133 -0.0288,0.31133 -0.0904,0 -0.18313,-0.0304 -0.20609,-0.0675 z m 7.65175,-0.10799 c 0,-0.21698 0.28024,-0.19236 0.32274,0.0283 0.0196,0.1016 -0.026,0.1472 -0.1472,0.1472 -0.12116,0 -0.17554,-0.0544 -0.17554,-0.17554 z m 19.59654,-3.09439 c 0.17545,-0.0673 0.3848,-0.47048 0.3848,-0.74104 0,-0.11516 -0.0986,-0.3266 -0.2192,-0.46987 -0.36872,-0.43821 -1.04162,-0.33645 -1.26194,0.19084 -0.14678,0.35131 -0.074,0.69721 0.19046,0.90523 0.20906,0.16445 0.63566,0.21853 0.90588,0.11484 z m -0.57829,-0.60762 c -0.0746,-0.12064 0.0956,-0.29723 0.23488,-0.24378 0.19131,0.0734 0.16931,0.31133 -0.0288,0.31133 -0.0904,0 -0.18313,-0.0304 -0.20609,-0.0676 z m -34.65427,35.22993 c -0.3101,-0.0604 -0.414467,-0.25514 -0.24001,-0.44791 0.11247,-0.12428 0.18715,-0.14479 0.30246,-0.0831 0.18183,0.0973 0.72991,0.0981 0.96857,10e-4 0.16603,-0.0673 0.46567,0.10054 0.46567,0.26078 0,0.23592 -0.86628,0.39149 -1.49669,0.26877 z m -1.005298,-0.99666 c -0.142952,-0.34214 -0.156498,-0.73259 -0.03956,-1.14033 0.10277,-0.35834 0.250587,-0.45946 0.431843,-0.29543 0.123495,0.11176 0.125262,0.16291 0.01699,0.49181 -0.105547,0.3206 -0.104894,0.40524 0.0052,0.66863 0.115062,0.27538 0.113178,0.31316 -0.02172,0.43524 -0.20927,0.18939 -0.25444,0.171 -0.392707,-0.15992 z m 2.720028,0.13132 c -0.11514,-0.12723 -0.12712,-0.19919 -0.0554,-0.3331 0.0503,-0.094 0.0914,-0.29012 0.0914,-0.43594 0,-0.14583 -0.0411,-0.342 -0.0914,-0.43595 -0.0713,-0.13321 -0.0602,-0.20527 0.0503,-0.32739 0.0779,-0.0861 0.19343,-0.13673 0.25665,-0.11247 0.38702,0.14851 0.34715,1.80714 -0.0434,1.80714 -0.0336,0 -0.12727,-0.073 -0.20804,-0.16229 z m -1.31871,-0.77525 c 0,-0.21697 0.28024,-0.19236 0.32274,0.0283 0.0196,0.1016 -0.026,0.1472 -0.1472,0.1472 -0.12116,0 -0.17554,-0.0544 -0.17554,-0.17554 z m 58.42,-0.67734 c 0,-0.21697 0.28024,-0.19235 0.32274,0.0283 0.0196,0.1016 -0.026,0.1472 -0.14719,0.1472 -0.12117,0 -0.17555,-0.0544 -0.17555,-0.17555 z m -1.10066,-0.34363 c 0,-0.16397 0.34522,-0.66371 0.52494,-0.75989 0.16384,-0.0877 0.15736,-0.10571 -0.15175,-0.42226 l -0.32289,-0.33067 h -3.26898 -3.26898 l -0.24464,0.25535 c -0.49808,0.51989 -1.28466,0.50765 -1.80389,-0.0281 -0.50403,-0.52002 -0.47293,-1.30331 0.0721,-1.8166 l 0.33239,-0.31303 -0.33971,-0.34614 c -0.57122,-0.58203 -0.56828,-1.33877 0.007,-1.88083 l 0.3324,-0.31303 -0.33971,-0.34614 c -0.57122,-0.58203 -0.56828,-1.33877 0.007,-1.88083 l 0.3324,-0.31303 -0.33971,-0.34614 c -0.57122,-0.58203 -0.56828,-1.33877 0.007,-1.88083 l 0.3324,-0.31303 -0.33971,-0.34614 c -0.57122,-0.58203 -0.56828,-1.33877 0.007,-1.88083 l 0.3324,-0.31303 -0.33971,-0.34614 c -0.57494,-0.58582 -0.56832,-1.33001 0.0168,-1.89228 l 0.34285,-0.32945 -0.25892,-0.19143 c -0.68784,-0.50854 -0.68784,-1.59817 0,-2.10671 l 0.25892,-0.19143 -0.34285,-0.32944 c -0.58516,-0.56228 -0.59178,-1.30646 -0.0168,-1.89229 l 0.33971,-0.34614 -0.3324,-0.31303 c -0.57559,-0.54206 -0.57853,-1.2988 -0.007,-1.88083 l 0.33971,-0.34614 -0.33573,-0.31617 c -0.18464,-0.1739 -0.3951,-0.31617 -0.46766,-0.31617 -0.20811,0 -0.54758,-0.39367 -0.54758,-0.635 0,-0.25368 0.34328,-0.635 0.57164,-0.635 0.0858,0 0.29617,-0.14355 0.46749,-0.319 l 0.31149,-0.319 -0.33222,-0.31286 c -0.58079,-0.54696 -0.57872,-1.29824 0.005,-1.89323 0.34831,-0.35489 0.35011,-0.35991 0.16962,-0.47181 -0.24777,-0.15361 -0.62977,-0.717 -0.5613,-0.8278 0.1009,-0.16326 0.36755,-0.0931 0.62505,0.16436 0.36027,0.36027 0.86639,0.36027 1.18252,0 0.22193,-0.25292 0.54846,-0.33499 0.65391,-0.16436 0.0684,0.11075 -0.31348,0.67416 -0.56104,0.82764 -0.18075,0.11206 -0.17964,0.11554 0.14158,0.4445 l 0.32376,0.33156 h 3.26763 3.26763 l 0.32376,-0.33156 c 0.32246,-0.33023 0.32302,-0.33201 0.13937,-0.4445 -0.24633,-0.15089 -0.54177,-0.63662 -0.48198,-0.79243 0.0773,-0.20155 0.26987,-0.14527 0.58662,0.17149 0.23902,0.23902 0.36126,0.29633 0.63205,0.29633 0.20751,0 0.41792,-0.0647 0.55099,-0.16933 0.25355,-0.19945 0.65423,-0.22787 0.65423,-0.0464 0,0.0676 -0.1326,0.2517 -0.29466,0.40909 l -0.29467,0.28617 0.25989,0.24707 c 0.34657,0.32949 0.49877,0.63906 0.49877,1.01451 0,0.36561 -0.2861,0.91432 -0.57567,1.10404 l -0.20496,0.1343 0.29564,0.30945 c 0.38292,0.4008 0.48499,0.60934 0.48499,0.99085 0,0.3668 -0.2857,0.91541 -0.57567,1.1054 l -0.20496,0.1343 0.29564,0.30945 c 0.38292,0.4008 0.48499,0.60934 0.48499,0.99085 0,0.3668 -0.2857,0.91541 -0.57567,1.1054 l -0.20496,0.1343 0.29564,0.30945 c 0.38292,0.4008 0.48499,0.60934 0.48499,0.99085 0,0.70364 -0.62607,1.30826 -1.35467,1.30826 -0.39812,0 -0.92526,-0.24447 -1.08021,-0.50096 -0.10502,-0.17383 -0.15369,-0.17637 -3.36878,-0.17637 h -3.26222 l -0.33267,0.31965 -0.33266,0.31966 0.33485,0.31534 0.33485,0.31535 h 5.21703 5.21704 l 0.24887,-0.20942 c 0.13688,-0.11517 0.39383,-0.25284 0.571,-0.30592 0.27593,-0.0827 0.37826,-0.0717 0.71359,0.0766 0.47068,0.20821 0.73388,0.59358 0.73433,1.0752 4.2e-4,0.42025 -0.30752,0.90377 -0.67155,1.05456 -0.14271,0.0591 -0.25947,0.14047 -0.25947,0.1808 0,0.0403 0.15132,0.16886 0.33626,0.2856 0.88054,0.55586 0.76397,1.75101 -0.20695,2.12181 -0.36357,0.13885 -0.40317,0.1388 -0.76911,-9.5e-4 -0.21219,-0.081 -0.4309,-0.21957 -0.48603,-0.30784 -0.0967,-0.15477 -0.28912,-0.16049 -5.39668,-0.16049 h -5.29645 l -0.3115,0.31899 -0.31149,0.319 0.33222,0.31286 c 0.5754,0.54188 0.57827,1.29871 0.007,1.88066 l -0.33971,0.34614 0.33573,0.31617 0.33574,0.31618 h 3.17609 3.17609 v -0.19855 c 0,-0.1092 0.0802,-0.27112 0.17822,-0.35983 0.15405,-0.13941 0.31363,-0.16129 1.17644,-0.16129 1.36845,0 1.35467,-0.0139 1.35467,1.36525 v 1.04268 l -0.24586,0.18177 -0.24585,0.18177 0.24585,0.38767 c 0.26296,0.41464 0.32201,0.89425 0.15118,1.22793 -0.0521,0.10171 -0.22771,0.32418 -0.39031,0.49437 l -0.29564,0.30945 0.20497,0.1343 c 0.28996,0.18999 0.57566,0.7386 0.57566,1.1054 0,0.38152 -0.10207,0.59005 -0.48499,0.99085 l -0.29564,0.30945 0.20497,0.1343 c 0.30599,0.2005 0.57566,0.73977 0.57566,1.15119 0,0.32856 -0.0489,0.40774 -0.60697,0.98331 -0.48265,0.49775 -0.65781,0.62598 -0.85514,0.62598 -0.17072,0 -0.34063,0.0925 -0.54449,0.29633 -0.28774,0.28774 -0.61807,0.39489 -0.61807,0.20049 z m 1.87973,-1.60153 c 0.23283,-0.23283 0.25369,-0.29668 0.21349,-0.65338 -0.0325,-0.28848 -0.1053,-0.44757 -0.26928,-0.58862 -0.43196,-0.37155 -1.20014,-0.17024 -1.40484,0.36816 l -0.0762,0.20055 h -3.59472 c -3.54029,0 -3.59555,-0.003 -3.64938,-0.1722 -0.0914,-0.28811 -0.39131,-0.50514 -0.69795,-0.50514 -0.38944,0 -0.60674,0.13255 -0.73994,0.45134 -0.23232,0.55601 0.11192,1.07523 0.70939,1.06997 0.33832,-0.003 0.5232,-0.1122 0.67623,-0.39947 l 0.10147,-0.1905 h 3.63769 c 3.07521,0 3.63769,0.0185 3.63769,0.11947 0,0.0657 0.11722,0.21811 0.2605,0.33867 0.37874,0.31869 0.85379,0.30326 1.1959,-0.0389 z m -9.70082,-0.48684 c -0.0746,-0.12064 0.0956,-0.29723 0.23488,-0.24378 0.19131,0.0734 0.16931,0.31133 -0.0288,0.31133 -0.0904,0 -0.18312,-0.0304 -0.20608,-0.0675 z m 8.92175,-0.108 c 0,-0.12116 0.0456,-0.16676 0.1472,-0.14719 0.2207,0.0425 0.24532,0.32274 0.0283,0.32274 -0.12117,0 -0.17554,-0.0544 -0.17554,-0.17555 z m 0.77907,-1.94516 c 0.23283,-0.23283 0.25369,-0.29668 0.21349,-0.65338 -0.0325,-0.28848 -0.1053,-0.44757 -0.26928,-0.58862 -0.43196,-0.37155 -1.20014,-0.17024 -1.40484,0.36816 l -0.0762,0.20055 h -3.59472 c -3.54029,0 -3.59555,-0.003 -3.64938,-0.1722 -0.0914,-0.28811 -0.39131,-0.50514 -0.69795,-0.50514 -0.38944,0 -0.60674,0.13255 -0.73994,0.45134 -0.23232,0.55601 0.11192,1.07523 0.70939,1.06997 0.33832,-0.003 0.5232,-0.1122 0.67623,-0.39947 l 0.10147,-0.1905 h 3.63769 c 3.07521,0 3.63769,0.0185 3.63769,0.11947 0,0.0657 0.11722,0.21811 0.2605,0.33867 0.37874,0.31869 0.85379,0.30326 1.1959,-0.0388 z m -9.70082,-0.48684 c -0.0746,-0.12064 0.0956,-0.29723 0.23488,-0.24378 0.19131,0.0734 0.16931,0.31133 -0.0288,0.31133 -0.0904,0 -0.18312,-0.0304 -0.20608,-0.0676 z m 8.92175,-0.108 c 0,-0.21697 0.28024,-0.19235 0.32274,0.0283 0.0196,0.1016 -0.026,0.1472 -0.14719,0.1472 -0.12117,0 -0.17555,-0.0544 -0.17555,-0.17555 z m 0.77907,-1.94516 c 0.23283,-0.23283 0.25369,-0.29668 0.21349,-0.65338 -0.0325,-0.28848 -0.1053,-0.44757 -0.26928,-0.58862 -0.43196,-0.37155 -1.20014,-0.17024 -1.40484,0.36816 l -0.0762,0.20055 h -3.59472 c -3.54029,0 -3.59555,-0.003 -3.64938,-0.1722 -0.0914,-0.28811 -0.39131,-0.50514 -0.69795,-0.50514 -0.38944,0 -0.60674,0.13255 -0.73994,0.45134 -0.23232,0.55601 0.11192,1.07523 0.70939,1.06997 0.33832,-0.003 0.5232,-0.1122 0.67623,-0.39947 l 0.10147,-0.1905 h 3.63769 c 3.07521,0 3.63769,0.0185 3.63769,0.11947 0,0.0657 0.11722,0.21811 0.2605,0.33867 0.37874,0.31869 0.85379,0.30326 1.1959,-0.0389 z m -9.70082,-0.48684 c -0.0746,-0.12064 0.0956,-0.29723 0.23488,-0.24378 0.19131,0.0734 0.16931,0.31133 -0.0288,0.31133 -0.0904,0 -0.18312,-0.0304 -0.20608,-0.0675 z m 8.92175,-0.108 c 0,-0.21697 0.28024,-0.19235 0.32274,0.0283 0.0196,0.1016 -0.026,0.1472 -0.14719,0.1472 -0.12117,0 -0.17555,-0.0544 -0.17555,-0.17555 z m 1.016,-2.49145 v -0.889 h -0.84666 -0.84667 v 0.381 0.381 h -3.63496 c -3.58076,0 -3.63578,-0.003 -3.68961,-0.1722 -0.0914,-0.28811 -0.39132,-0.50514 -0.69796,-0.50514 -0.38944,0 -0.60674,0.13255 -0.73994,0.45134 -0.23231,0.55601 0.11192,1.07523 0.70939,1.06997 0.33832,-0.003 0.5232,-0.1122 0.67623,-0.39947 l 0.10148,-0.1905 h 3.63768 3.63769 v 0.381 0.381 h 0.84667 0.84666 z m -9.93775,0.0595 c -0.0746,-0.12064 0.0956,-0.29723 0.23488,-0.24378 0.19131,0.0734 0.16931,0.31133 -0.0288,0.31133 -0.0904,0 -0.18312,-0.0304 -0.20608,-0.0675 z m 8.92175,-0.108 c 0,-0.12116 0.0456,-0.16676 0.1472,-0.14719 0.2207,0.0425 0.24532,0.32274 0.0283,0.32274 -0.12117,0 -0.17554,-0.0544 -0.17554,-0.17555 z m -8.22965,-1.94346 c 0.51589,-0.48063 0.21279,-1.35233 -0.47021,-1.35233 -0.15726,0 -0.36286,0.0412 -0.45687,0.0915 -0.22482,0.12032 -0.40667,0.56826 -0.35033,0.86295 0.0988,0.51666 0.88654,0.76204 1.27741,0.3979 z m -0.6921,-0.48854 c -0.0746,-0.12064 0.0956,-0.29723 0.23488,-0.24378 0.19131,0.0734 0.16931,0.31133 -0.0288,0.31133 -0.0904,0 -0.18312,-0.0304 -0.20608,-0.0676 z m 0.63176,-1.98831 c 0.0739,-0.0567 0.18,-0.18887 0.23581,-0.29364 l 0.10148,-0.1905 h 5.62735 c 3.69513,0 5.62735,0.0291 5.62735,0.0847 0,0.20352 0.34852,0.42334 0.67119,0.42334 0.25839,0 0.37165,-0.0497 0.508,-0.22309 0.3609,-0.4588 0.0881,-1.13158 -0.45874,-1.13158 -0.40101,0 -0.53956,0.0707 -0.68342,0.34893 l -0.12604,0.24374 h -5.58012 c -5.5367,0 -5.58055,-0.001 -5.63477,-0.1722 -0.13824,-0.43553 -0.72275,-0.6449 -1.15483,-0.41366 -0.22482,0.12032 -0.40667,0.56826 -0.35033,0.86295 0.0891,0.46634 0.8398,0.7507 1.21707,0.46105 z m -0.63176,-0.55169 c -0.0746,-0.12064 0.0956,-0.29723 0.23488,-0.24378 0.19131,0.0734 0.16931,0.31133 -0.0288,0.31133 -0.0904,0 -0.18312,-0.0304 -0.20608,-0.0675 z m 12.73175,-0.108 c 0,-0.12116 0.0456,-0.16676 0.1472,-0.14719 0.2207,0.0425 0.24532,0.32274 0.0283,0.32274 -0.12117,0 -0.17554,-0.0544 -0.17554,-0.17555 z m -12.09999,-1.88031 c 0.0739,-0.0567 0.18,-0.18887 0.23581,-0.29364 l 0.10148,-0.1905 h 5.62735 c 3.69513,0 5.62735,0.0291 5.62735,0.0847 0,0.20352 0.34852,0.42334 0.67119,0.42334 0.25839,0 0.37165,-0.0497 0.508,-0.22309 0.3609,-0.4588 0.0881,-1.13158 -0.45874,-1.13158 -0.40101,0 -0.53956,0.0707 -0.68342,0.34893 l -0.12604,0.24374 h -5.58012 c -5.5367,0 -5.58055,-10e-4 -5.63477,-0.1722 -0.13824,-0.43553 -0.72275,-0.6449 -1.15483,-0.41366 -0.22482,0.12032 -0.40667,0.56826 -0.35033,0.86295 0.0891,0.46634 0.8398,0.7507 1.21707,0.46105 z m -0.63176,-0.55169 c -0.0746,-0.12064 0.0956,-0.29723 0.23488,-0.24378 0.19131,0.0734 0.16931,0.31133 -0.0288,0.31133 -0.0904,0 -0.18312,-0.0304 -0.20608,-0.0675 z m 12.73175,-0.108 c 0,-0.21697 0.28024,-0.19235 0.32274,0.0283 0.0196,0.1016 -0.026,0.1472 -0.14719,0.1472 -0.12117,0 -0.17555,-0.0544 -0.17555,-0.17555 z m -3.04148,-1.93461 c 0.28214,-0.28214 0.32289,-0.63109 0.11961,-1.02421 -0.15715,-0.30389 -0.36495,-0.42163 -0.74414,-0.42163 -0.33014,0 -0.71041,0.25862 -0.82555,0.56145 l -0.0762,0.20055 h -3.59472 c -3.54029,0 -3.59555,-0.003 -3.64938,-0.1722 -0.0914,-0.28811 -0.39131,-0.50514 -0.69795,-0.50514 -0.38944,0 -0.60674,0.13255 -0.73994,0.45134 -0.23232,0.55601 0.11192,1.07523 0.70939,1.06997 0.33832,-0.003 0.5232,-0.11219 0.67623,-0.39947 l 0.10147,-0.1905 h 3.63769 c 3.07521,0 3.63769,0.0185 3.63769,0.11947 0,0.0657 0.11722,0.21811 0.2605,0.33867 0.37363,0.31439 0.85413,0.30292 1.18535,-0.0283 z m -9.69027,-0.49739 c -0.0746,-0.12064 0.0956,-0.29723 0.23488,-0.24378 0.19131,0.0734 0.16931,0.31133 -0.0288,0.31133 -0.0904,0 -0.18312,-0.0304 -0.20608,-0.0676 z m 8.92175,-0.108 c 0,-0.21697 0.28024,-0.19235 0.32274,0.0284 0.0196,0.1016 -0.026,0.1472 -0.14719,0.1472 -0.12117,0 -0.17555,-0.0544 -0.17555,-0.17555 z m 0.76852,-1.93461 c 0.28214,-0.28214 0.32289,-0.63109 0.11961,-1.02421 -0.15715,-0.30389 -0.36495,-0.42163 -0.74414,-0.42163 -0.33014,0 -0.71041,0.25862 -0.82555,0.56145 l -0.0762,0.20055 h -3.59472 c -3.54029,0 -3.59555,-0.003 -3.64938,-0.1722 -0.0914,-0.28811 -0.39131,-0.50514 -0.69795,-0.50514 -0.38944,0 -0.60674,0.13255 -0.73994,0.45134 -0.23232,0.55601 0.11192,1.07523 0.70939,1.06997 0.33832,-0.003 0.5232,-0.11219 0.67623,-0.39947 l 0.10147,-0.1905 h 3.63769 c 3.07521,0 3.63769,0.0185 3.63769,0.11947 0,0.0657 0.11722,0.21811 0.2605,0.33867 0.37363,0.31439 0.85413,0.30292 1.18535,-0.0283 z m -9.69027,-0.49739 c -0.0746,-0.12064 0.0956,-0.29723 0.23488,-0.24378 0.19131,0.0734 0.16931,0.31133 -0.0288,0.31133 -0.0904,0 -0.18312,-0.0304 -0.20608,-0.0675 z m 8.92175,-0.10799 c 0,-0.21698 0.28024,-0.19236 0.32274,0.0283 0.0196,0.1016 -0.026,0.1472 -0.14719,0.1472 -0.12117,0 -0.17555,-0.0544 -0.17555,-0.17554 z m 0.76852,-1.93462 c 0.28214,-0.28214 0.32289,-0.63109 0.11961,-1.02421 -0.15715,-0.30389 -0.36495,-0.42163 -0.74414,-0.42163 -0.33014,0 -0.71041,0.25862 -0.82555,0.56145 l -0.0762,0.20055 h -3.59472 c -3.54029,0 -3.59555,-0.003 -3.64938,-0.1722 -0.0914,-0.28811 -0.39131,-0.50514 -0.69795,-0.50514 -0.37434,0 -0.58293,0.11868 -0.73897,0.42044 -0.0944,0.18256 -0.19844,0.25293 -0.40304,0.27265 -0.36193,0.0349 -0.31964,0.18863 0.0611,0.22219 0.18283,0.0161 0.2981,0.071 0.2981,0.14202 0,0.20326 0.42736,0.46687 0.75225,0.46401 0.33832,-0.003 0.5232,-0.11219 0.67623,-0.39947 l 0.10148,-0.1905 h 3.63768 c 3.07521,0 3.63769,0.0185 3.63769,0.11947 0,0.0657 0.11723,0.21811 0.2605,0.33867 0.37364,0.31439 0.85413,0.30292 1.18535,-0.0283 z m -9.65852,-0.60538 c 0,-0.21698 0.28024,-0.19236 0.32274,0.0283 0.0196,0.1016 -0.026,0.1472 -0.14719,0.1472 -0.12117,0 -0.17555,-0.0544 -0.17555,-0.17554 z m 8.89,0 c 0,-0.12117 0.0456,-0.16677 0.1472,-0.1472 0.2207,0.0425 0.24532,0.32274 0.0283,0.32274 -0.12117,0 -0.17554,-0.0544 -0.17554,-0.17554 z m 0.76852,-1.93462 c 0.28214,-0.28214 0.32289,-0.63109 0.11961,-1.02421 -0.15715,-0.30389 -0.36495,-0.42163 -0.74414,-0.42163 -0.33014,0 -0.71041,0.25862 -0.82555,0.56145 l -0.0762,0.20055 h -3.59472 c -3.54029,0 -3.59555,-0.003 -3.64938,-0.1722 -0.0914,-0.28811 -0.39131,-0.50514 -0.69795,-0.50514 -0.38944,0 -0.60674,0.13255 -0.73994,0.45134 -0.23232,0.55601 0.11192,1.07523 0.70939,1.06997 0.33832,-0.003 0.5232,-0.11219 0.67623,-0.39947 l 0.10147,-0.1905 h 3.63769 c 3.07521,0 3.63769,0.0185 3.63769,0.11947 0,0.0657 0.11722,0.21811 0.2605,0.33867 0.37363,0.31439 0.85413,0.30292 1.18535,-0.0283 z m -9.69027,-0.49739 c -0.0746,-0.12064 0.0956,-0.29723 0.23488,-0.24378 0.19131,0.0734 0.16931,0.31133 -0.0288,0.31133 -0.0904,0 -0.18312,-0.0304 -0.20608,-0.0676 z m 8.92175,-0.10799 c 0,-0.21698 0.28024,-0.19236 0.32274,0.0283 0.0196,0.1016 -0.026,0.1472 -0.14719,0.1472 -0.12117,0 -0.17555,-0.0544 -0.17555,-0.17554 z m 1.22767,27.60754 c 0.0288,-0.0466 0.0882,-0.0847 0.132,-0.0847 0.0438,0 0.0797,0.0381 0.0797,0.0847 0,0.0466 -0.0594,0.0847 -0.132,0.0847 -0.0726,0 -0.10845,-0.0381 -0.0797,-0.0847 z m 13.94578,-1.88572 c -0.14373,-0.153 -0.18744,-0.30192 -0.18744,-0.63857 0,-0.43139 0.004,-0.43905 0.254,-0.43905 0.24459,0 0.254,0.0141 0.254,0.381 v 0.381 h 0.47128 c 0.46419,0 0.47089,0.004 0.4445,0.23284 -0.0255,0.2221 -0.0503,0.23397 -0.53784,0.25757 -0.4451,0.0215 -0.53524,-0.001 -0.6985,-0.17479 z m 1.81634,0.13594 c -0.031,-0.031 -0.0565,-0.14535 -0.0565,-0.254 0,-0.18302 0.0343,-0.19756 0.46566,-0.19756 h 0.46567 v -0.51362 c 0,-0.51037 0.001,-0.51346 0.23283,-0.48683 0.22374,0.0257 0.23383,0.0479 0.25833,0.56705 0.0218,0.46258 -0.002,0.56912 -0.16293,0.74084 -0.15515,0.16515 -0.27302,0.20056 -0.66754,0.20056 -0.26353,0 -0.50454,-0.0254 -0.53558,-0.0564 z m -0.47978,-1.72777 c 0,-0.12116 0.0456,-0.16676 0.14719,-0.14719 0.22071,0.0425 0.24532,0.32274 0.0284,0.32274 -0.12117,0 -0.17554,-0.0544 -0.17554,-0.17555 z m -74.93001,-2.54 c 0,-0.12116 0.0456,-0.16676 0.1472,-0.14719 0.2207,0.0425 0.24531,0.32274 0.0284,0.32274 -0.12117,0 -0.17554,-0.0544 -0.17554,-0.17555 z m -1.523998,-0.79812 c 0,-0.7582 0.148158,-0.90636 0.871768,-0.87177 0.50287,0.024 0.52637,0.035 0.55202,0.25794 0.0264,0.22932 0.0197,0.23283 -0.4445,0.23283 h -0.471288 v 0.46567 c 0,0.46096 -0.0026,0.46566 -0.254,0.46566 h -0.254 z m 2.878668,0.0847 v -0.46575 h -0.47129 c -0.46419,0 -0.47089,-0.004 -0.4445,-0.23283 0.0256,-0.22292 0.0491,-0.23391 0.55202,-0.25794 0.72361,-0.0346 0.87177,0.11357 0.87177,0.87177 v 0.55033 h -0.254 c -0.25144,0 -0.254,-0.005 -0.254,-0.46566 z m -2.600138,-8.83251 c -0.239763,-0.14818 -0.349981,-0.92716 -0.204665,-1.44648 0.07752,-0.27706 0.298128,-0.41002 0.458893,-0.2766 0.107886,0.0895 0.108162,0.14746 0.0022,0.4551 -0.104934,0.30458 -0.105178,0.40194 -0.0018,0.71598 0.106946,0.32486 0.105016,0.37672 -0.01817,0.48821 -0.07581,0.0686 -0.182202,0.0973 -0.236433,0.0638 z m 2.567088,-0.0896 c -0.11187,-0.12362 -0.11704,-0.19161 -0.0317,-0.41762 0.0809,-0.21436 0.1504,-0.26997 0.33734,-0.26997 0.26476,0 0.26752,0.008 0.14864,0.43608 -0.10118,0.36428 -0.26841,0.45687 -0.45426,0.25151 z m -1.32162,-0.76605 c 0,-0.12117 0.0544,-0.17554 0.17554,-0.17554 0.21697,0 0.19236,0.28023 -0.0284,0.32274 -0.1016,0.0196 -0.14719,-0.026 -0.14719,-0.1472 z m 1.27832,-0.44207 c -0.17797,-0.51053 0.25382,-0.69932 0.46167,-0.20186 0.17162,0.41076 0.15648,0.46839 -0.12304,0.46839 -0.19946,0 -0.26321,-0.0502 -0.33863,-0.26653 z m 70.61386,-1.92504 c -0.5497,-0.29291 -0.85351,-1.13599 -0.59283,-1.64516 0.0521,-0.10172 0.22813,-0.32461 0.39124,-0.49533 l 0.29656,-0.31038 -0.18438,-0.11295 c -0.24633,-0.15089 -0.54178,-0.63662 -0.48199,-0.79243 0.078,-0.20338 0.27071,-0.14443 0.59816,0.18302 0.29546,0.29546 0.32621,0.30596 0.76352,0.26083 0.36892,-0.0381 0.48158,-0.0184 0.59174,0.10333 0.12358,0.13656 0.12386,0.16049 0.003,0.26077 -0.11816,0.0981 -0.1006,0.14438 0.15719,0.41431 0.15962,0.16714 0.33282,0.38711 0.3849,0.48883 0.26356,0.51482 -0.0452,1.36121 -0.59979,1.64413 -0.39267,0.20033 -0.9525,0.20076 -1.32736,10e-4 z m 1.26634,-0.59592 c 0.28215,-0.28214 0.3229,-0.63109 0.1196,-1.02421 -0.25488,-0.49289 -0.87832,-0.5793 -1.32166,-0.18318 -0.5877,0.52512 -0.19742,1.45488 0.61073,1.45488 0.26715,0 0.39904,-0.0552 0.59133,-0.24749 z m -0.80026,-0.49739 c -0.0746,-0.12064 0.0956,-0.29723 0.23487,-0.24378 0.19131,0.0734 0.16931,0.31133 -0.0288,0.31133 -0.0904,0 -0.18312,-0.0304 -0.20608,-0.0676 z m 6.7585,-0.47933 c -0.2871,-0.28711 -0.25461,-0.58582 0.0677,-0.62291 0.18753,-0.0216 0.23284,0.007 0.23284,0.14816 0,0.1388 0.0537,0.17496 0.25962,0.17496 0.23328,0 0.2569,0.0236 0.23283,0.23283 -0.0388,0.33724 -0.48507,0.37492 -0.79303,0.067 z m 0.89325,-0.89867 c 0,-0.12116 0.0456,-0.16676 0.14719,-0.14719 0.22071,0.0425 0.24532,0.32274 0.0283,0.32274 -0.12117,0 -0.17554,-0.0544 -0.17554,-0.17555 z m -6.62723,-0.56534 c -0.16617,-0.18362 -0.0491,-0.44445 0.19942,-0.44445 0.21253,0 0.28785,0.18907 0.16601,0.41672 -0.11488,0.21466 -0.19103,0.22044 -0.36543,0.0277 z m -0.99277,-0.70465 c 0,-0.12117 0.0456,-0.16677 0.14719,-0.1472 0.22071,0.0425 0.24532,0.32274 0.0283,0.32274 -0.12117,0 -0.17554,-0.0544 -0.17554,-0.17554 z m 7.99675,-4.18134 c -0.2871,-0.28711 -0.25461,-0.58582 0.0677,-0.62291 0.18753,-0.0216 0.23284,0.007 0.23284,0.14816 0,0.1388 0.0537,0.17496 0.25962,0.17496 0.23328,0 0.2569,0.0236 0.23283,0.23283 -0.0388,0.33724 -0.48507,0.37492 -0.79303,0.067 z m 1.37303,0.15176 c -0.031,-0.031 -0.0565,-0.14534 -0.0565,-0.254 0,-0.16306 0.0444,-0.19755 0.254,-0.19755 0.20027,0 0.254,-0.037 0.254,-0.17496 0,-0.14091 0.0453,-0.16974 0.23283,-0.14816 0.31974,0.0368 0.35506,0.33559 0.073,0.61765 -0.20264,0.20264 -0.62435,0.29007 -0.75739,0.15702 z m -9.36978,-1.05042 c 0,-0.12117 0.0456,-0.16677 0.14719,-0.1472 0.22071,0.0425 0.24532,0.32274 0.0283,0.32274 -0.12117,0 -0.17554,-0.0544 -0.17554,-0.17554 z m 8.89,0 c 0,-0.12117 0.0456,-0.16677 0.14719,-0.1472 0.22071,0.0425 0.24532,0.32274 0.0284,0.32274 -0.12117,0 -0.17554,-0.0544 -0.17554,-0.17554 z m -31.75001,-2.54 c 0,-0.21698 0.28024,-0.19236 0.32274,0.0283 0.0196,0.1016 -0.026,0.1472 -0.14719,0.1472 -0.12117,0 -0.17555,-0.0544 -0.17555,-0.17554 z m 8.89,0 c 0,-0.21698 0.28024,-0.19236 0.32274,0.0283 0.0196,0.1016 -0.026,0.1472 -0.14719,0.1472 -0.12117,0 -0.17555,-0.0544 -0.17555,-0.17554 z m -50.8,-1.27 c 0,-0.21698 0.28024,-0.19236 0.32274,0.0283 0.0196,0.1016 -0.026,0.1472 -0.1472,0.1472 -0.12116,0 -0.17554,-0.0544 -0.17554,-0.17554 z m 0.93134,-0.40676 c 0,-0.0874 0.0613,-0.20982 0.13616,-0.27197 0.11569,-0.096 0.15388,-0.0888 0.254,0.0481 0.18806,0.2572 0.14339,0.38279 -0.13616,0.38279 -0.19204,0 -0.254,-0.0388 -0.254,-0.15896 z m 5.63007,-1.57045 c -0.0231,-0.0733 -0.0599,-0.1904 -0.0817,-0.26025 -0.0293,-0.0937 0.0277,-0.127 0.2173,-0.127 0.2302,0 0.25417,0.0242 0.23017,0.23211 -0.0298,0.25855 -0.29724,0.37199 -0.36571,0.15514 z m 2.0835,0.004 c -0.15366,-0.18514 -0.0196,-0.39172 0.25415,-0.39172 0.27687,0 0.27454,-0.004 0.16237,0.29082 -0.0907,0.2387 -0.26677,0.28134 -0.41652,0.10091 z m 8.0765,-0.004 c -0.0231,-0.0733 -0.0599,-0.1904 -0.0817,-0.26025 -0.0293,-0.0937 0.0277,-0.127 0.2173,-0.127 0.2302,0 0.25417,0.0242 0.23017,0.23211 -0.0298,0.25855 -0.29724,0.37199 -0.36571,0.15514 z m 2.1073,0.0205 c -0.0341,-0.0551 -0.0649,-0.30603 -0.0685,-0.55756 -0.007,-0.47139 0.10341,-0.66934 0.32512,-0.58426 0.162,0.0622 0.25418,0.71585 0.14231,1.00923 -0.092,0.24117 -0.29095,0.30731 -0.39893,0.13259 z m -11.20871,-0.58329 c 0,-0.12117 0.0456,-0.16677 0.1472,-0.1472 0.2207,0.0425 0.24532,0.32274 0.0284,0.32274 -0.12117,0 -0.17554,-0.0544 -0.17554,-0.17554 z m 10.16,0 c 0,-0.12117 0.0456,-0.16677 0.1472,-0.1472 0.2207,0.0425 0.24532,0.32274 0.0284,0.32274 -0.12117,0 -0.17554,-0.0544 -0.17554,-0.17554 z m -11.30121,-0.26259 c 0.0831,-0.27449 0.17575,-0.35509 0.33713,-0.29316 0.23809,0.0914 0.1236,0.43047 -0.15614,0.46249 -0.21671,0.0248 -0.23466,0.008 -0.18099,-0.16933 z m 2.12083,0.0421 c -0.069,-0.17985 0.14911,-0.4058 0.32615,-0.33787 0.0735,0.0282 0.13357,0.1477 0.13357,0.26558 0,0.16961 -0.0423,0.21433 -0.20261,0.21433 -0.11152,0 -0.22711,-0.0639 -0.25711,-0.14204 z m 8.03917,-0.0421 c 0.0831,-0.27449 0.17575,-0.35509 0.33713,-0.29316 0.23809,0.0914 0.1236,0.43047 -0.15614,0.46249 -0.21671,0.0248 -0.23466,0.008 -0.18099,-0.16933 z m 11.0138,-0.31401 c -0.21085,-0.23299 -0.11913,-0.45246 0.17457,-0.4177 0.28684,0.0339 0.32956,0.16123 0.13482,0.40173 l -0.15293,0.18885 z m -0.98259,-0.6934 c 0,-0.12117 0.0456,-0.16677 0.1472,-0.1472 0.2207,0.0425 0.24532,0.32274 0.0283,0.32274 -0.12117,0 -0.17554,-0.0544 -0.17554,-0.17554 z m -1.10066,-0.33609 c 0,-0.0486 0.16939,-0.26939 0.37643,-0.49073 l 0.37643,-0.40243 -0.32967,-0.31047 c -0.7409,-0.69773 -0.44576,-1.92255 0.52633,-2.18431 1.26931,-0.34179 2.13316,1.27471 1.16729,2.18431 l -0.32967,0.31047 0.37643,0.40243 c 0.20703,0.22134 0.37643,0.44217 0.37643,0.49073 0,0.0486 -0.11676,0.0883 -0.25947,0.0883 -0.18436,0 -0.32133,-0.0735 -0.47319,-0.254 -0.17204,-0.20446 -0.27995,-0.254 -0.55323,-0.254 -0.26806,0 -0.38944,0.0535 -0.57678,0.254 -0.23169,0.24803 -0.67733,0.35705 -0.67733,0.16571 z m 1.6472,-1.4883 c 0.17545,-0.0673 0.3848,-0.47048 0.3848,-0.74104 0,-0.11516 -0.0986,-0.3266 -0.2192,-0.46987 -0.36872,-0.43821 -1.04162,-0.33645 -1.26194,0.19084 -0.14678,0.35131 -0.074,0.69721 0.19046,0.90524 0.20906,0.16444 0.63566,0.21852 0.90588,0.11483 z m -0.57829,-0.60762 c -0.0746,-0.12064 0.0956,-0.29723 0.23488,-0.24378 0.19131,0.0734 0.16931,0.31133 -0.0288,0.31133 -0.0904,0 -0.18313,-0.0304 -0.20609,-0.0675 z m 38.59742,45.96781 c 0.37944,-0.17331 0.83905,-0.6073 1.03039,-0.97296 0.20421,-0.39028 0.23804,-1.0729 0.0771,-1.5573 -0.44758,-1.34752 -2.17684,-1.82276 -3.25974,-0.89585 -0.85898,0.73526 -0.95369,2.02031 -0.21359,2.89811 0.52453,0.62212 1.623,0.86727 2.36579,0.528 z m -0.97366,-1.87981 c 0,-0.12116 0.0456,-0.16676 0.14719,-0.14719 0.22071,0.0425 0.24532,0.32274 0.0284,0.32274 -0.12117,0 -0.17554,-0.0544 -0.17554,-0.17555 z m -4.18254,0.98835 0.28787,-0.28787 v -1.6677 -1.6677 l 0.56422,-0.58443 0.56422,-0.58444 h 6.93299 c 7.60933,0 7.28568,0.0216 7.55814,-0.50523 0.18125,-0.35051 0.18772,-3.5394 0.008,-3.88047 -0.0995,-0.18874 -5.94677,-6.0915 -6.06522,-6.1228 -0.0205,-0.005 -0.45632,-0.0421 -0.96855,-0.0815 -0.51223,-0.0394 -1.1139,-0.0961 -1.33704,-0.12597 -0.69167,-0.0925 -1.14764,0.21759 -1.3332,0.90671 -0.0736,0.27331 -0.0604,0.39216 0.0786,0.70636 0.23839,0.53894 0.59471,0.74176 1.19462,0.68 0.25611,-0.0264 0.69426,-0.068 0.97366,-0.0925 l 0.508,-0.0446 2.49767,2.50249 2.49767,2.50249 0.0296,0.76154 0.0296,0.76155 h -6.57432 c -5.50717,0 -6.61141,0.0195 -6.80292,0.11992 -0.12575,0.066 -0.69536,0.59323 -1.2658,1.17172 l -1.03718,1.0518 v 1.36828 1.36828 H 47.298365 12.649349 l -1.588314,-1.58678 -1.5883151,-1.58667 v -1.52772 -1.52773 l 0.450685,-0.44509 0.4506841,-0.44508 2.660816,0.0353 c 1.463449,0.0194 2.79417,0.0609 2.95715,0.0923 0.57147,0.10987 1.27,-0.50038 1.27,-1.10949 0,-0.92014 -0.80222,-1.49875 -1.63632,-1.18021 -0.30494,0.11646 -0.784726,0.13711 -3.185897,0.13711 H 9.6129499 l -1.064948,1.05558 -1.064948,1.05558 -0.02536,2.18163 c -0.01395,1.1999 -0.0058,2.25935 0.01799,2.35434 0.03939,0.15696 4.0694521,4.25995 4.3677001,4.44674 0.07868,0.0493 13.700479,0.08 35.801299,0.0808 l 35.6743,10e-4 z m -67.69947,-9.86593 c 0,-0.12117 0.0544,-0.17554 0.17554,-0.17554 0.21697,0 0.19236,0.28023 -0.0284,0.32273 -0.1016,0.0196 -0.14719,-0.026 -0.14719,-0.14719 z m 74.93001,-4.49975 c 0,-0.12117 0.0456,-0.16676 0.14719,-0.14719 0.22071,0.0425 0.24532,0.32273 0.0284,0.32273 -0.12117,0 -0.17554,-0.0544 -0.17554,-0.17554 z m 0.81159,-2.48843 c 0.82674,-0.5417 0.65708,-1.85895 -0.27923,-2.16796 -0.86527,-0.28556 -1.79619,0.58113 -1.54921,1.44233 0.22415,0.78153 1.17015,1.15696 1.82844,0.72563 z m -0.81159,-0.97049 c 0,-0.12116 0.0544,-0.17554 0.17553,-0.17554 0.21698,0 0.19237,0.28023 -0.0284,0.32274 -0.1016,0.0196 -0.14719,-0.026 -0.14719,-0.1472 z M 12.666538,247.78411 c 1.209798,-0.60287 1.490304,-2.11538 0.58339,-3.14569 -0.426666,-0.48472 -0.88349,-0.69879 -1.491208,-0.69879 -1.154441,0 -2.0436491,0.87374 -2.0544341,2.01869 -0.01437,1.52544 1.5858001,2.5117 2.9622521,1.82579 z m -1.077151,-1.8224 c 0,-0.12117 0.04559,-0.16677 0.147195,-0.1472 0.220703,0.0425 0.245317,0.32274 0.02835,0.32274 -0.121165,0 -0.175541,-0.0544 -0.175541,-0.17554 z m 76.007158,1.8224 c 1.20979,-0.60287 1.4903,-2.11538 0.58339,-3.14569 -0.42667,-0.48472 -0.88349,-0.69879 -1.49121,-0.69879 -1.15444,0 -2.04365,0.87374 -2.05444,2.01869 -0.0144,1.52544 1.58581,2.5117 2.96226,1.82579 z m -1.07715,-1.8224 c 0,-0.12117 0.0456,-0.16677 0.14719,-0.1472 0.22071,0.0425 0.24532,0.32274 0.0283,0.32274 -0.12117,0 -0.17554,-0.0544 -0.17554,-0.17554 z"
       id="path21"
       inkscape:connector-curvature="0" />
  </g>
</svg>
